<!DOCTYPE svg PUBLIC "-//W3C//DTD SVG 1.1//EN" "http://www.w3.org/Graphics/SVG/1.1/DTD/svg11.dtd">
<!-- Uploaded to: SVG Find, www.svgrepo.com, Transformed by: SVG Find Mixer Tools -->
<svg fill="#ffffff" width="256px" height="256px" version="1.1" viewBox="144 144 512 512" xmlns="http://www.w3.org/2000/svg">
<g id="SVGRepo_bgCarrier" stroke-width="0"/>
<g id="SVGRepo_tracerCarrier" stroke-linecap="round" stroke-linejoin="round"/>
<g id="SVGRepo_iconCarrier"> <path d="m288.39 505.3 121.11-88.398c11.031-8.0469 26.492-8.7969 38.234-1.8438l110.04 65.086c5.1719 3.0586 11.059 4.6758 17.035 4.6758 13.316 0 25.305-7.832 30.547-19.949 3.7461-8.6523 6.4883-17.656 8.1484-26.758 3.4141-18.625-7.6641-36.953-25.77-42.641l-159.33-50.055c-6.6953-2.1055-13.648-3.1719-20.664-3.1719-13.918 0-27.344 4.1445-38.848 11.984l-71.965 49.078c-3.6484 2.4883-7.9023 3.8008-12.305 3.8008-6.4375 0-12.52-2.8086-16.684-7.707-7.6211-8.9688-6.8164-22.246 1.8242-30.23l107.02-98.879c10.074-9.3086 23.184-14.434 36.902-14.434 11.734 0 22.922 3.6953 32.359 10.688l112.12 83.086c3.9805 2.9453 8.6836 4.5039 13.609 4.5039 8.2383 0 15.867-4.4453 19.918-11.609 2.2109-3.9219 4.125-7.9219 5.6797-11.887 5.6484-14.43 3.7578-30.75-5.0742-43.66l-27.543-40.301c-10.102-14.77-25.328-24.812-42.879-28.27l-126.82-24.977c-24.664-4.8633-50.949 1.75-70.363 17.672l-77.227 63.297c-7.4336 6.0898-12.441 14.652-14.105 24.117l-46.926 266.43c-1.8945 10.738 1.0391 21.684 8.043 30.031 7.0195 8.3633 17.273 13.16 28.137 13.16 1.0273 0 2.0664-0.042969 3.1133-0.12891l132.27-10.98 0.90625 10.559 42.625-3.6602 3.918 3.0664 13.215-9.6445-11.617 0.99609-43.508 3.7344-0.46875-5.4766 59.625-4.9492c9.6484-0.80078 19.473-0.76953 29.09 0.085937l100.5 8.9336c11.582 1.0508 23.246-1.4062 33.383-6.9102 2.0625-1.1211 4.1914-2.3594 6.3281-3.7266 8.043-5.1367 13.488-13.535 14.941-23.043 1.4844-9.7148-1.293-19.602-7.6211-27.125-8.0586-9.582-16.727-17.258-25.754-22.812l-0.69922-0.42969-92.742-21.984c-24.746-5.8633-51.555-2.8242-74.355 8.4297l-91.402 45.113c-3.4961 1.7266-7.2422 2.6016-11.125 2.6016-8.2969 0-16.059-4.0781-20.754-10.914-7.7734-11.297-5.1836-26.488 5.9023-34.574zm-14.289 40.348c6.5938 9.5977 17.488 15.324 29.141 15.324 5.457 0 10.711-1.2305 15.625-3.6523l91.402-45.113c20.703-10.223 45.059-12.98 67.508-7.6523l91.137 21.605c7.8594 4.9531 15.465 11.77 22.617 20.27 4.4453 5.2852 6.3945 12.223 5.3555 19.039-1.0234 6.7109-4.7031 12.395-10.359 16.004-1.9258 1.2266-3.8398 2.3477-5.707 3.3555-8.3867 4.5547-18.039 6.5625-27.625 5.7188l-100.5-8.9336c-10.191-0.90625-20.609-0.93359-30.836-0.089844l-196.96 16.352c-0.76562 0.066406-1.5195 0.09375-2.2695 0.09375-7.8438 0-15.262-3.4727-20.34-9.5273-5.0664-6.0352-7.1875-13.957-5.8242-21.727l46.926-266.43c1.2461-7.0664 4.9883-13.465 10.539-18.012l77.223-63.301c13.355-10.945 30.211-16.973 47.473-16.973 4.8477 0 9.7188 0.47266 14.477 1.4102l126.81 24.977c14.918 2.9414 27.867 11.473 36.453 24.031l27.543 40.301c6.9219 10.129 8.418 22.914 3.9961 34.207-1.3828 3.5234-3.0859 7.0898-5.0664 10.598-2.2422 3.9688-6.4766 6.4336-11.055 6.4336-2.7266 0-5.3398-0.86328-7.5469-2.5l-112.12-83.086c-11.203-8.3008-24.484-12.688-38.418-12.688-16.289 0-31.848 6.0859-43.809 17.137l-107.02 98.879c-12.66 11.699-13.836 31.152-2.668 44.293 6.1016 7.1758 15.004 11.293 24.434 11.293 6.457 0 12.695-1.9258 18.039-5.5703l71.965-49.078c14.746-10.051 33.691-12.859 50.727-7.5117l159.33 50.055c13.211 4.1484 21.301 17.52 18.816 31.102-1.5234 8.3438-4.043 16.605-7.4805 24.547-3.625 8.3906-11.953 13.812-21.203 13.812-4.1523 0-8.2539-1.1289-11.859-3.2578l-110.04-65.082c-6.9258-4.0977-14.844-6.2656-22.895-6.2656-9.5977 0-18.77 2.9922-26.52 8.6484l-121.11 88.398c-15.562 11.355-19.203 32.688-8.2891 48.566z"/> </g>
</svg>