<?xml version="1.0" encoding="utf-8"?>
<svg xmlns="http://www.w3.org/2000/svg" viewBox="197.0215 29.46 641.7592 417.829" width="641.7592px" height="417.829px">
  <path d="M 680.654 29.482 C 614.514 29.007 519.491 36.375 519.491 36.375 L 518.02 36.489 L 516.715 37.219 L 260.589 180.587 L 260.517 180.665 C 260.517 180.665 249.657 187.19 237.013 196.527 C 224.367 205.864 209.876 217.671 201.693 230.479 L 201.478 230.769 L 201.334 231.084 C 198.486 236.57 196.342 243.321 197.221 250.707 C 198.238 259.312 202.611 266.283 207.239 271.639 C 213.487 278.878 221.719 281.047 227.934 283.525 C 234.144 286.01 237.46 288.053 238.501 291.079 C 238.998 292.499 238.501 294.591 236.515 298.805 C 234.481 303.018 231.075 308.183 229.968 315.309 C 228.244 326.427 227.967 337.856 229.101 349.042 C 230.379 361.622 232.999 374.425 237.82 386.41 C 241.741 396.156 247.203 405.232 253.776 413.1 C 261.44 422.282 270.518 430.756 281.112 436.735 C 286.99 440.05 294.669 442.363 301.287 444.181 C 307.9 445.999 313.319 447.14 313.319 447.14 L 314.032 447.289 L 669.934 445.304 L 670.89 445.007 C 670.89 445.007 675.468 443.576 680.776 441.191 C 686.09 438.809 692.227 436.04 696.677 430.216 C 703.943 420.695 703.562 408.968 704.563 401.137 L 704.563 400.228 C 705.132 364.933 703.655 337.642 695.119 315.915 C 686.582 294.187 670.36 278.986 644.92 269.78 L 645.274 269.91 C 589.435 246.304 526.32 232.677 478.547 188.206 C 475.91 184.759 472.847 173.51 473.013 161.475 C 473.156 149.523 476.082 136.89 480.494 129.8 C 490.689 118.727 507.072 113.189 523.317 106.527 C 533.257 102.45 543.377 99.217 553.363 98.2 C 556.159 97.916 558.227 97.374 559.743 97.16 C 559.743 98.861 559.743 101.695 558.566 106.337 C 556.989 112.754 554.386 120.731 553.34 129.276 C 552.284 137.822 552.986 147.711 559.068 155.723 C 565.145 163.733 575.451 168.815 590.982 171.133 L 592.714 171.395 L 594.361 170.759 C 610.744 164.428 618.684 151.171 624.633 138.863 C 630.571 126.555 635.217 114.984 645.456 106.247 L 645.744 106.008 L 645.959 105.746 C 660.655 90.438 680.886 78.48 700.381 77.108 C 701.14 77.031 702.234 77.031 703.318 77.108 C 695.522 96.09 679.117 114.251 670.442 136.953 C 667.356 145.049 659.421 154.509 658.477 168.302 C 657.747 178.899 661.572 188.152 664.829 195.788 C 669.65 207.063 674.578 223.25 688.455 231.023 C 723.548 250.677 767.433 260.958 800.673 268.643 C 806.407 269.97 811.643 268.009 815.741 265.5 C 819.831 262.999 823.172 259.795 825.858 257.055 C 829.84 253.002 831.499 248.1 832.654 244.129 C 838.289 224.849 839.062 204.625 838.708 185.418 C 838.565 179.042 837.962 172.255 835.894 165.574 C 829.132 143.757 817.354 124.842 806.501 106.709 C 796.836 90.58 781.89 70.785 768.493 57.71 C 757.091 46.591 748.306 39.917 733.388 34.193 C 724.11 30.633 714.86 30.682 706.826 30.241 C 698.919 29.801 690.056 29.582 680.607 29.51 L 680.654 29.482 Z M 680.654 44.755 C 689.898 44.832 698.513 45.029 706.132 45.45 C 714.574 45.908 722.382 46.133 728.646 48.536 C 742.093 53.693 748.081 58.341 758.985 68.98 C 770.944 80.64 785.719 100.11 794.598 114.937 C 805.528 133.194 816.505 151.13 822.46 170.367 C 823.881 174.937 824.45 180.221 824.555 185.693 C 824.909 204.218 824.058 222.802 819.148 239.525 C 818.263 242.568 817.108 244.946 816.123 245.944 C 813.768 248.344 811.102 250.764 808.747 252.203 C 806.392 253.641 804.755 253.937 803.694 253.694 C 770.518 246.021 727.596 235.686 695.041 217.46 C 687.726 213.36 682.916 201.461 677.762 189.392 C 674.682 182.165 672.278 175.104 672.67 169.399 C 673.168 162.238 679.271 154.066 683.601 142.721 C 691.419 122.266 710.843 102.559 718.949 76.284 C 720.06 72.683 718.219 67.322 715.892 65.326 C 713.558 63.328 711.529 62.86 709.61 62.443 C 705.773 61.612 702.112 61.682 699.487 61.878 C 675.413 63.573 652.766 77.438 636.113 94.785 L 636.611 94.286 C 623.263 105.679 617.601 120.256 612.017 131.822 C 606.704 142.829 602.02 150.864 591.172 155.641 C 578.936 153.526 572.809 149.698 570.051 146.067 C 567.153 142.246 566.611 137.658 567.397 131.263 C 568.181 124.875 570.498 117.458 572.279 110.207 C 574.054 102.962 576.093 95.196 571.853 87.558 L 571.708 87.337 L 571.565 87.124 C 569.945 84.61 567.357 82.947 565.135 82.286 C 562.913 81.626 560.993 81.669 559.319 81.81 C 555.967 82.102 553.197 82.869 551.981 82.994 C 540.098 84.2 528.792 87.914 518.215 92.253 C 502.529 98.683 483.509 104.306 469.824 119.585 L 469.47 120.007 L 469.183 120.483 C 461.889 131.613 459.025 146.768 458.826 161.227 C 458.611 175.685 460.59 189.421 468.026 198.502 L 468.315 198.876 L 468.669 199.202 C 520.061 247.4 585.775 261.127 640.066 284.079 L 640.353 284.234 C 663.238 292.518 674.954 303.888 682.005 321.842 C 689.025 339.718 690.834 365.112 690.326 399.546 C 689.187 408.58 688.451 416.799 685.598 420.537 C 684.708 421.708 679.699 425.095 675.203 427.115 C 671.482 428.786 668.706 429.725 667.673 430.064 L 315.367 432.031 C 314.869 431.923 310.584 431.021 304.717 429.41 C 298.524 427.71 291.078 425.185 287.633 423.234 C 278.997 418.357 271.094 411.1 264.255 402.91 C 258.698 396.26 254.042 388.528 250.764 380.363 C 246.662 370.171 244.29 358.838 243.129 347.397 C 242.127 337.598 242.388 327.529 243.892 317.824 C 244.317 315.257 246.556 310.961 249.033 305.838 C 251.51 300.708 254.408 293.583 251.721 285.786 C 248.299 275.842 239.635 271.969 232.789 269.235 C 225.95 266.501 220.056 264.159 217.551 261.264 C 214.21 257.401 211.668 252.665 211.208 248.784 C 210.854 246.081 211.849 242.171 213.548 238.764 C 219.535 229.63 233.043 217.898 244.954 209.109 C 256.963 200.236 267.209 194.073 267.297 194.02 L 521.88 51.519 C 525.617 51.235 617.197 44.37 680.595 44.781 L 680.654 44.755 Z" fill-rule="evenodd" style="stroke-width: 1.468px; fill: rgb(255, 255, 255);"/>
  <path style="stroke: rgb(0, 0, 0); stroke-width: 0.724px; fill: rgb(145, 145, 145);" d="M 412.463 179.887 C 412.463 179.887 337.23 207.09 310.26 232.693 C 283.29 258.297 286.838 256.696 286.838 256.696 C 286.838 256.696 325.875 267.097 320.196 288.699 C 314.518 310.302 302.452 341.505 303.872 351.906 C 305.291 362.308 318.776 392.711 364.2 397.511 C 409.624 402.312 602.674 397.511 602.674 397.511 C 602.674 397.511 614.643 309.121 572.154 299.1 C 530.17 289.199 435.428 290.708 418.85 238.293 C 406.02 197.727 412.463 179.887 412.463 179.887 Z"/>
</svg>
