<?xml version="1.0" encoding="UTF-8" standalone="no"?>
<!-- Created with Inkscape (http://www.inkscape.org/) -->

<svg
   width="100%"
   height="100%"
   viewBox="0 0 404.29581 206.68942"
   version="1.1"
   id="svg5"
   xml:space="preserve"
   xmlns:inkscape="http://www.inkscape.org/namespaces/inkscape"
   xmlns:sodipodi="http://sodipodi.sourceforge.net/DTD/sodipodi-0.dtd"
   xmlns="http://www.w3.org/2000/svg"
   xmlns:svg="http://www.w3.org/2000/svg"><sodipodi:namedview
     id="namedview7"
     pagecolor="#ffffff"
     bordercolor="#000000"
     borderopacity="0.25"
     inkscape:showpageshadow="2"
     inkscape:pageopacity="0.0"
     inkscape:pagecheckerboard="0"
     inkscape:deskcolor="#d1d1d1"
     inkscape:document-units="mm"
     showgrid="false" /><defs
     id="defs2" /><g
     inkscape:label="Layer 1"
     inkscape:groupmode="layer"
     id="layer1"
     transform="translate(99.032732,-61.18408)"><g
       id="g78"
       transform="matrix(0.26458333,0,0,0.26458333,-25.699619,20.318195)"
       style="fill:none"><g
         id="base-map"
         style="fill:none"><path
           d="m 224.24,264.72 -26.418,6.9141 -0.55078,0.35156 c 0,0 -10.871,6.4219 -16.348,12.016 -2.3008,2.3477 -4.8867,5.2227 -6.2891,9.1484 -1.4375,4.0312 -1.6719,8.3672 -0.9375,12.438 0.85156,4.7461 2.1523,10.934 7.2266,15.012 59.73,47.961 109.75,57.758 160.32,83.832 -0.60547,8.2773 -0.95312,16.234 -0.67188,22.844 0.10156,2.9883 -0.10156,7.2344 2.457,11.301 2.75,4.3789 7.0703,6.4141 10.383,8.0273 3.3516,1.6328 6.7109,2.1602 9.5938,2.6484 4.207,0.71094 8.4453,0.95703 12.605,0.90625 4.7852,-0.0508 10.277,0.15234 15.859,-1.6055 2.7109,-0.85156 4.793,-2.3164 6.5156,-3.6055 2.5859,-1.9297 5.168,-4.9766 5.168,-4.9766 l 0.0508,-0.0508 36.949,-44.578 c 0.15234,-0.15234 1.5312,-1.3789 3.5273,-2.9609 2.1094,-1.6719 4.8633,-3.543 6.0664,-4.0625 4.2578,-1.832 9.3438,-2.5391 14.496,-2.6797 4.2266,-0.10156 8.6406,0.57812 12.949,1.7422 2.7344,0.74219 5.1289,1.5664 6.7148,2.7266 0.99219,0.72656 1.8047,1.6758 2.1406,2.4375 0.59375,1.3164 0.78906,3.375 0.69531,5.668 -0.0508,1.4453 -1.0586,3.7148 -1.6719,7.0234 -0.62109,3.3555 -2.1758,7.5625 -1.6914,12.629 0.35156,3.8125 1.7148,7.3789 3.582,10.48 1.8633,3.082 4.3828,6.1602 7.8828,8.2891 4.125,2.5 8.5,2.9844 12.035,3.5234 5.9258,0.90625 10.695,-0.35156 13.891,0.35156 1.5117,0.35156 2.8867,0.92188 3.8047,1.6211 1.1758,0.89844 2.1172,2.0547 2.5,2.9961 0.51562,1.2812 0.25,3.9336 0.50391,7.6484 0.20312,2.7812 -0.69922,6.8516 0.69531,11.621 0.98438,3.3555 2.6992,6.6797 5.3906,9.3516 3.2305,3.2109 7.0547,4.4648 9.8633,5.707 3.3047,1.4648 6.1836,1.8789 8.0664,2.6914 2.6289,1.1367 4.6992,1.9805 5.7148,2.9336 5.3906,5.0469 8.9922,12.16 12.68,19.875 3.6836,7.7188 7.4375,16.012 13.922,22.789 2.4805,2.5898 5.7344,6.0898 10.828,7.1406 5.8906,1.2109 11.73,-0.50391 16.402,-3.1602 4.9883,-2.8516 8.3945,-7.4102 10.777,-11.906 3.0781,-5.8086 4.9023,-12.504 4.7852,-19.234 -0.0508,-3.0664 -1.0078,-5.918 -1.8594,-8.4102 -0.85156,-2.4922 -1.6992,-4.4648 -1.6992,-4.4648 l -0.15234,-0.35156 -85.336,-129.34 0.20312,0.30078 c 0,0 -1.4258,-2.5898 -3.4297,-5.5859 -2.0039,-2.9961 -4.3672,-6.418 -7.6445,-8.7227 -3.5625,-2.5 -7.7266,-3.543 -11.656,-3.7227 -4.1797,-0.20312 -8.75,0.92188 -12.664,1.9766 -3.9141,1.0547 -7.0312,2.1406 -7.0312,2.1406 l -0.30469,0.10156 c 0,0 -0.82031,0.35156 -1.793,0.62109 -0.30078,0.10156 -0.57812,0.0508 -0.85547,0.10156 -0.10156,-0.15234 -0.15234,-0.25 -0.35156,-0.64453 -0.59375,-1.3242 -1.4023,-3.9531 -4.4883,-5.4648 -3.9062,-1.9141 -7.2852,-0.625 -9.1289,-0.30078 -10.461,1.8945 -20.434,5.8281 -29.629,10.645 -8.7422,4.5859 -21.941,15.633 -21.941,15.633 l -0.0508,0.0508 -43.938,38.719 -10.02,2.5078 -18.871,-4.8984 c -1.2344,-0.68359 -2.4648,-1.3086 -3.6914,-1.9766 2.5625,-28.234 8.2266,-59.75 8.4883,-61.203 l 19.613,-35.512 0.10156,-0.30078 c 0,0 0.57422,-1.5469 1.1797,-3.4922 0.59766,-1.9453 1.2734,-4.1719 1.4492,-6.4883 0.25,-3.1523 0.25,-6.8398 -1.2578,-10.5 -1.5234,-3.6836 -4.0703,-6.957 -7.3906,-9.2812 -2.3633,-1.6523 -4.9062,-2.207 -7.1094,-2.457 -2.3633,-0.25 -5.1484,-0.30078 -7.9922,0.86328 -2.207,0.90234 -3.5117,2.1719 -4.7188,3.2695 -1.2148,1.0977 -2.125,2.0742 -2.125,2.0742 l -0.15234,0.15234 -42.812,54.949 -4.2656,3.6406 -6.4648,1.1875 -8.0742,-0.10156 -15.012,-7.6289 -11.059,-13.305 -7.418,-20.391 -9.1953,-17.402 -9.9805,-9.1094 -11.949,-3.6797 z m -0.20312,9.0078 7.7344,2.3828 7.4297,6.7812 8.2188,15.539 7.7227,21.25 13.168,15.84 18.398,9.3516 10.934,0.15234 9.5977,-1.7578 6.707,-5.7227 43.07,-55.281 c 0.0508,-0.10156 0.64844,-0.69531 1.5234,-1.4805 0.92188,-0.83594 2.2773,-1.7148 2.1797,-1.6719 0.80078,-0.35156 2.2031,-0.45312 3.7422,-0.25 1.3711,0.15234 2.5352,0.53906 3.1133,0.94531 1.8281,1.2812 3.4727,3.3555 4.3477,5.4805 0.67188,1.6289 0.82812,3.9961 0.62891,6.5391 -0.0508,0.71094 -0.5625,2.8867 -1.0898,4.5859 -0.50391,1.5586 -0.86328,2.5859 -0.9375,2.7852 l -19.965,36.152 -0.15234,0.69141 c 0,0 -5.6367,30.258 -8.4297,59.082 -50.523,-25.488 -98.555,-35.402 -155.67,-81.27 -1.9531,-1.5664 -3.3711,-5.582 -4.125,-9.7852 -0.45313,-2.6484 -0.30078,-5.5938 0.57422,-8 0.67188,-1.875 2.3008,-3.9414 4.3164,-5.9961 3.3555,-3.4258 13.387,-9.8477 14.211,-10.375 l 22.723,-5.9453 z m 259.54,73.152 c 0.10156,0.20312 0.35156,0.53516 0.64062,1.2109 0.62891,1.3945 1.6055,4.168 4.8711,5.457 3.0664,1.2148 4.9414,0.35156 6.5664,-0.10156 1.6211,-0.45312 2.9102,-1.0234 2.9102,-1.0234 l -0.30078,0.10156 c 0,0 2.8398,-0.99219 6.418,-1.9531 3.582,-0.96094 8.0469,-1.7852 10.016,-1.6914 2.6094,0.15234 5.2852,0.90234 7.0781,2.168 1.1289,0.78906 3.6523,3.793 5.4297,6.4492 1.7734,2.6562 3.0391,4.9414 3.0391,4.9414 l 0.20312,0.30469 84.871,128.63 c 0.10156,0.25 0.67188,1.5703 1.3516,3.5625 0.73438,2.1562 1.3867,4.9258 1.3945,5.7539 0.10156,5.0391 -1.3398,10.434 -3.7773,15.027 -1.8789,3.5469 -4.5078,6.7773 -7.4219,8.4375 -3.2305,1.8438 -7.3398,2.8164 -10.363,2.1953 -1.6992,-0.35156 -3.9961,-2.2266 -6.3086,-4.6406 -5.1523,-5.3906 -8.6445,-12.75 -12.363,-20.531 -3.7188,-7.7773 -7.6797,-16 -14.57,-22.465 -2.832,-2.6484 -6,-3.6133 -8.2031,-4.5664 -3.3008,-1.4258 -6.1445,-1.8398 -7.9961,-2.6602 -3.1836,-1.4102 -5.8477,-2.5234 -7.2695,-3.9297 -1.3906,-1.3867 -2.5391,-3.4727 -3.1758,-5.6367 -0.61328,-2.0898 -0.0508,-5.4414 -0.35156,-9.7891 -0.15234,-2.2773 0.625,-6 -1.1094,-10.289 -1.1641,-2.8828 -3.1641,-5.0273 -5.2656,-6.6406 -2.2578,-1.7266 -4.7812,-2.6562 -7.168,-3.1953 -6.0391,-1.3555 -11.059,0.0508 -14.484,-0.45312 -3.6133,-0.55078 -6.7852,-1.1133 -8.8438,-2.3633 -1.8398,-1.1133 -3.5977,-3.0977 -4.9688,-5.3594 -1.2812,-2.125 -2.1562,-4.5586 -2.3711,-6.8164 -0.25,-2.5938 0.80469,-6.0156 1.5859,-10.23 0.35156,-1.8125 1.6523,-4.4688 1.8086,-8.2305 0.10156,-2.8359 0.0508,-6.2227 -1.4453,-9.5859 -1.1484,-2.5586 -2.9883,-4.4648 -4.9336,-5.8828 -3.168,-2.3125 -6.625,-3.293 -9.5625,-4.0898 -4.9062,-1.3281 -10.133,-2.1875 -15.445,-2.0391 -5.7578,0.15234 -11.914,0.89844 -17.684,3.3789 -2.9492,1.2656 -5.6836,3.3711 -8.0273,5.2227 -2.3438,1.8594 -4.1406,3.4844 -4.1406,3.4844 l -0.25,0.20312 -37.23,44.914 c 0,0.0508 -3.1094,3.2344 -3.9062,3.8281 -1.4805,1.1016 -2.8281,1.9336 -3.9297,2.2812 -3.75,1.1797 -8.3633,1.1484 -13.359,1.2109 -3.7422,0 -7.4648,-0.20312 -11.055,-0.78906 -2.8516,-0.50391 -5.375,-0.98438 -7.2539,-1.8945 -3.1289,-1.5234 -5.7734,-3.1523 -6.8359,-4.8477 -0.76562,-1.2148 -0.99609,-3.8125 -1.1367,-7.0586 -0.20312,-5.1172 0,-11.391 0.45312,-17.973 0.25,0.10156 0.45312,0.25 0.67969,0.35156 l 0.50391,0.25 22.047,5.7188 14.207,-3.5508 45.383,-40.004 c 0.0508,0 13.801,-11.148 20.426,-14.621 8.6211,-4.5234 17.816,-8.1055 27.148,-9.793 2.2305,-0.40234 3.3906,-0.40234 3.5273,-0.40234 z"
           fill-rule="evenodd"
           id="path346"
           style="fill:#000000"
           transform="matrix(2.8872944,0,0,2.8872944,-676.45116,-609.87083)" /></g><g
         id="public-areas"
         style="fill:#fff"><path
           style="opacity:0.568935;fill:#fff;stroke-width:0.264583"
           d="m -76.516015,76.239581 -17.590224,-9.531578 c 0,0 -5.430629,34.076437 -4.888437,44.663937 0.54219,10.58751 8.48033,41.99397 16.609507,54.74557 8.129177,12.7516 14.672387,34.14401 24.608491,38.81863 9.936104,4.67461 46.483474,6.26038 58.68907975,5.30746 12.20560525,-0.95292 33.60251525,3.02029 44.27312625,10.71262 10.670611,7.69234 41.870606,18.37731 53.834159,17.43446 11.963553,-0.94286 32.703633,-16.898 43.380253,-31.85491 10.67662,-14.95691 4.77558,-48.59508 4.77558,-48.59508 0,0 -6.0258,-2.63382 -10.28131,3.10331 -4.25551,5.73712 -16.75227,20.13246 -16.75227,20.13246 l -18.88722,22.05412 c 0,0 -14.185606,6.83881 -24.01644,5.2964 -28.189886,-3.87415 -30.521223,-14.4864 -26.320102,-35.27644 -32.607773,-14.0593 -67.427752,-26.1743 -107.684328,-50.31705 0,0 -11.45466,-6.09338 -17.789298,-17.83775 -6.334639,-11.744373 -1.960567,-28.856159 -1.960567,-28.856159 z"
           id="path1115"
           sodipodi:nodetypes="ccssssssscscccccsc"
           transform="matrix(3.7795276,0,0,3.7795276,97.132419,-76.793179)" /><rect
           style="opacity:0.568935;fill:#fff;stroke-width:0.264583"
           id="rect1171"
           width="38.643169"
           height="115.92952"
           x="107.46965"
           y="219.46312"
           transform="matrix(3.1692206,-2.0593371,2.0593371,3.1692206,97.132419,-76.793179)" /></g><g
         id="map-popups"
         style="fill:none">
         <!-- Group 1 --><g
           class="popup-group"
           id="g28"
           style="fill:none"><circle
             id="trigger1"
             class="trigger-btn"
             cx="178.15738"
             cy="372.61557"
             r="29.137018"
             fill="#ff9800"
             stroke="#333333"
             stroke-width="2"
             style="fill:#ff0000" /><g
             class="map-popup"
             id="popup1"
             style="fill:none"><rect
               x="138.15738"
               y="302.61557"
               width="160"
               height="60"
               rx="12"
               fill="#ffffff"
               stroke="#333333"
               stroke-width="0rem"
               id="rect23"
               style="fill:#fff" /><text
               x="148.15738"
               y="337.61557"
               id="text25"
               style="fill:#fff, color:##000">Las Vegas Strip</text>
               </g>
               </g>
              
               <!-- Group 2 -->
               <g
           class="popup-group"
           id="g36"
           style="fill:none"><circle
             id="trigger2"
             class="trigger-btn"
             cx="660.99323"
             cy="392.5582"
             r="32.052021"
             fill="#29b6f6"
             stroke="#333333"
             stroke-width="2"
             style="fill:#ff0000" /><g
             class="map-popup"
             id="popup2"
             style="fill:#fff"><rect
               x="630.99323"
               y="322.5582"
               width="160"
               height="60"
               rx="12"
               fill="#ffffff"
               stroke="#333333"
               stroke-width="2"
               id="rect31"
               style="fill:#fff" /><text
               x="640.99323"
               y="357.5582"
               id="text33"
               style="fill:#fff, color:##000">Downtown Vegas</text></g></g><!-- Group 3 --><g
           class="popup-group"
           id="g44"
           style="fill:none"><circle
             id="trigger3"
             class="trigger-btn"
             fill="#e91e63"
             stroke="#333333"
             stroke-width="2"
             style="fill:#ff0000"
             r="37.306637"
             cy="582.01294"
             cx="542.47961" /><g
             class="map-popup"
             id="popup3"
             style="fill:none"><rect
               x="502.47958"
               y="512.01294"
               width="160"
               height="60"
               rx="12"
               fill="#ffffff"
               stroke="#333333"
               stroke-width="2"
               id="rect39"
               style="fill:#fff" /><text
               x="512.47961"
               y="547.01294"
               id="text41"
               style="fill:#fff, color:##000">Arts District</text></g></g></g></g></g><style
     id="style9">
    .popup-group .map-popup {
      visibility: hidden;
      opacity: 0;
      pointer-events: none;
      transition: opacity 0.2s;
    }
    .popup-group:hover .map-popup,
    .popup-group:focus-within .map-popup {
      visibility: visible;
      opacity: 1;
      pointer-events: auto;
    }
    .trigger-btn {
      cursor: pointer;
      /* Confirmed: Removed transition property as nothing is transitioning on hover anymore */
      /* transition: r 0.15s, filter 0.2s; */
      filter: drop-shadow(0 2px 8px #0004);
    }
    .trigger-btn:hover {
      /* No changes here, as per previous fixes */
    }
    .map-popup rect {
      filter: drop-shadow(0 2px 12px #0002);
    }
    .map-popup text {
      font-family: sans-serif;
      font-size: 18px;
      fill: #1a1a1a;
      pointer-events: none;
    }
  </style></svg>
