<?xml version="1.0" encoding="utf-8"?>
<svg xmlns="http://www.w3.org/2000/svg" viewBox="304.2661 127.3804 327.8381 204.9995" width="327.8381px" height="204.9995px">
  <path style="stroke: rgb(0, 0, 0); fill: rgb(145, 145, 145);" d="M 234.574 350.966 L 320.222 367.651 L 305.762 451.075 L 259.045 426.604 C 254.438 426.604 230.285 350.966 234.574 350.966 Z" transform="matrix(1, 0, 0, 1, 73.35507202148438, -163.13516235351562)"/>
  <path d="M 544.494 350.158 C 551.701 340.064 559.154 329.627 558.732 320.72 C 558.443 314.653 551.724 300.107 543.462 299.751 C 531.497 299.145 520.489 312.731 508.962 327.013 C 499.509 338.728 488.763 352.118 480.724 351.259 C 478.65 351.067 474.989 344.919 472.802 341.247 C 470.732 337.02 467.833 333.258 464.278 330.185 C 457.474 326.282 449.973 323.747 442.2 322.72 C 442.142 321.759 442.22 320.302 442.275 319.325 C 442.486 315.419 442.88 308.153 436.286 307.223 C 430.786 306.446 408.329 305.563 382.321 304.54 C 353.587 303.407 321.02 302.126 312.106 300.923 L 312.106 300.926 C 293.442 298.622 274.93 295.231 256.665 290.77 C 255.15 290.302 253.509 290.485 252.138 291.274 C 248.896 293.118 247.556 297.7 246.025 303.973 L 246.021 303.969 C 245.732 305.329 245.365 306.665 244.919 307.981 C 242.286 314.555 237.904 327.184 236.189 333.614 L 235.579 335.856 L 235.579 335.852 C 232.923 344.067 231.353 352.59 230.911 361.211 C 233.786 377.402 238.919 393.109 246.161 407.871 C 250.06 416.973 255.447 425.363 262.099 432.695 C 265.217 434.777 268.677 436.301 272.322 437.195 C 273.983 437.668 275.611 438.246 277.197 438.926 C 279.561 440.086 283.147 442.32 286.615 444.477 C 290.389 446.824 293.943 449.039 296.642 450.363 L 299.56 451.809 C 313.021 458.477 335.544 469.641 348.822 471.344 L 348.822 471.348 C 351.342 471.445 353.858 471.113 356.264 470.363 C 357.916 469.863 359.619 469.57 361.342 469.492 C 364.334 470.391 368.662 475.863 372.487 480.695 C 378.256 487.988 384.214 495.515 391.151 495.515 C 391.776 495.515 392.397 495.453 393.01 495.336 C 399.069 494.156 401.124 486.89 403.108 479.859 C 403.761 476.405 405.085 473.112 407.007 470.163 C 412.741 468.487 418.784 468.136 424.675 469.132 C 429.585 469.722 434.55 469.679 439.448 468.995 L 439.452 468.995 C 445.034 467.23 450.35 464.71 455.249 461.503 C 462.448 457.343 471.405 452.155 475.78 453.476 C 479.366 454.546 483.295 464.281 486.171 471.39 C 490.858 482.999 495.756 494.956 505.191 493.038 C 512.843 491.464 512.589 479.308 512.417 471.265 L 512.39 469.628 C 511.812 463.968 510.409 458.421 508.23 453.163 C 505.64 447.507 504.288 441.366 504.265 435.151 C 507.741 428.507 512.64 422.713 518.613 418.178 C 524.433 413.541 529.379 407.897 533.203 401.51 C 534.984 395.1 535.207 388.362 533.851 381.85 C 533.109 377.538 532.972 373.147 533.437 368.799 C 536.172 362.065 539.898 355.779 544.496 350.154 L 544.494 350.158 Z M 333.144 310.439 C 346.863 311.146 364.593 311.845 382.003 312.532 C 384.87 312.646 387.714 312.759 390.518 312.868 L 388.503 340.29 L 329.999 329.532 L 333.144 310.439 Z M 243.296 337.955 L 243.909 335.673 C 245.53 329.611 249.843 317.189 252.343 310.946 L 252.343 310.95 C 252.925 309.286 253.409 307.591 253.788 305.872 C 254.308 303.489 255.003 301.15 255.87 298.868 C 274.065 303.181 292.479 306.517 311.034 308.853 C 313.878 309.236 318.804 309.615 325.116 309.993 L 316.386 362.891 L 240.894 347.254 C 241.714 343.79 242.62 340.434 243.296 337.954 L 243.296 337.955 Z M 300.179 443.205 C 297.835 442.048 294.28 439.834 290.839 437.693 C 287.034 435.326 283.441 433.087 280.714 431.752 C 278.773 430.896 276.78 430.17 274.745 429.576 C 272.109 428.896 269.573 427.88 267.202 426.545 C 261.464 419.955 256.804 412.502 253.39 404.455 C 246.546 390.623 241.663 375.9 238.89 360.717 C 238.843 358.834 238.988 356.955 239.316 355.099 L 315.086 370.79 L 302.914 444.552 L 300.179 443.205 Z M 378.562 475.498 C 374.937 469.658 369.773 464.932 363.64 461.838 C 362.792 461.595 361.913 461.478 361.034 461.49 C 358.777 461.603 356.538 461.974 354.362 462.599 C 352.89 463.045 351.37 463.318 349.835 463.42 C 336.105 460.045 322.855 454.943 310.405 448.236 L 317.964 402.431 L 382.519 421.638 L 378.562 475.498 Z M 319.277 394.486 L 328.691 337.427 L 387.91 348.318 L 383.121 413.482 L 319.277 394.486 Z M 460.227 449.631 C 457.246 451.138 454.231 452.857 451.238 454.584 L 451.242 454.584 C 447.024 457.326 442.485 459.549 437.726 461.193 C 433.566 461.662 429.363 461.65 425.203 461.162 C 417.625 459.752 409.801 460.549 402.66 463.455 C 398.707 467.244 396.149 472.263 395.41 477.689 C 394.508 480.884 392.832 486.822 391.477 487.49 C 390.102 487.74 388.086 486.248 385.946 484.119 L 389.024 442.267 L 460.407 447.802 L 460.227 449.631 Z M 461.156 439.842 L 389.601 434.295 L 393.762 377.709 L 466.223 386.552 L 461.156 439.842 Z M 394.355 369.729 L 398.512 313.194 C 415.332 313.877 429.422 314.514 434.332 315.045 C 434.402 316.33 434.39 317.615 434.289 318.897 C 433.605 322.244 434.285 325.725 436.179 328.573 C 437.34 329.846 438.972 330.588 440.695 330.631 C 447.414 331.42 453.906 333.522 459.808 336.823 C 462.285 339.326 464.347 342.201 465.929 345.342 C 467.117 347.334 468.327 349.326 469.593 351.178 L 466.988 378.592 L 394.355 369.729 Z M 513.175 412.319 L 513.172 412.319 C 505.906 417.74 500.16 424.952 496.496 433.245 C 495.933 440.991 497.371 448.757 500.664 455.792 C 502.499 460.252 503.749 464.932 504.386 469.714 L 504.418 471.44 C 504.816 476.046 504.531 480.69 503.574 485.213 C 500.562 485.69 496.207 474.916 493.578 468.404 C 489.335 457.908 485.332 447.99 478.062 445.822 C 474.933 445.029 471.644 445.154 468.581 446.178 L 472.499 404.987 L 514.729 410.862 C 514.206 411.346 513.694 411.834 513.171 412.319 L 513.175 412.319 Z M 525.898 382.729 L 525.895 382.729 C 526.914 387.842 526.918 393.112 525.91 398.229 C 524.832 400.264 523.465 402.135 521.852 403.779 L 473.258 397.018 L 476.937 358.319 L 476.941 358.323 C 477.89 358.799 478.922 359.108 479.976 359.229 C 488.617 360.018 496.691 353.412 504.8 344.397 L 528.452 360.174 L 528.456 360.174 C 527.277 362.287 526.343 364.529 525.675 366.854 C 524.898 372.123 524.972 377.483 525.894 382.729 L 525.898 382.729 Z M 532.582 353.311 L 510.074 338.299 C 511.769 336.252 513.472 334.166 515.183 332.041 C 524.5 320.49 534.761 307.244 543.07 307.74 L 543.067 307.74 C 547.152 311.123 549.875 315.873 550.738 321.107 C 551.031 327.24 544.098 336.951 537.98 345.517 C 536.074 348.181 534.273 350.767 532.582 353.31 L 532.582 353.311 Z" style="fill: rgb(255, 255, 255);" transform="matrix(1, 0, 0, 1, 73.35507202148438, -163.13516235351562)"/>
</svg>
