<?xml version="1.0" encoding="UTF-8" standalone="no"?>
<!-- Created with Inkscape (http://www.inkscape.org/) -->
<svg
   width="100%"
   height="100%"
   viewBox="0 0 542.39978 425.27274"
   version="1.1"
   id="svg5"
   xml:space="preserve"
   xmlns="http://www.w3.org/2000/svg"
   xmlns:svg="http://www.w3.org/2000/svg">
  <defs
     id="defs2" />
  <g
     id="layer1"
     transform="translate(171.32178,102.72001)">
    <g
       id="g78"
       transform="matrix(0.36352761,0,0,0.36352761,-454.03724,-74.957618)"
       style="fill:none">
      <g
         id="base-map"
         style="fill:none">
        <path
           d="m 600.75,448.85 c 1.1797,4.4883 -1.6133,9.0625 -6.1016,10.242 -0.17188,0.0391 -0.34766,0.0312 -0.52344,0.0664 -0.53516,0.0976 -1.082,0.19141 -1.5938,0.19141 -3.8086,0 -7.1953,-2.6211 -8.125,-6.4336 -1.1445,-4.3281 1.4297,-8.7773 5.6367,-10.082 0.15625,-0.0469 0.29688,-0.125 0.46484,-0.16016 4.4805,-1.0977 9.1328,1.6914 10.242,6.1758 z m -6.0156,27.27 c -4.6562,0 -8.3828,3.7227 -8.4648,8.293 v 0.17188 38.184 c 0,25.66 -20.914,46.488 -46.566,46.566 h -48.941 c -15.836,0 -30.395,-8.0469 -38.863,-21.422 -4.7422,-7.3672 -7.1953,-15.914 -7.1953,-24.555 0,-6.8555 1.5273,-13.461 4.4883,-19.719 l 6.0117,-12.699 c 1.2695,-2.7109 1.9492,-5.8438 1.9492,-8.8984 0,-5.0781 -1.8633,-9.9844 -5.3359,-13.801 l -54.531,-60.027 c -7.2812,-7.875 -17.523,-12.445 -28.191,-12.445 h -33.609 c -8.7227,0 -15.914,7.1953 -15.914,16 0,4.6562 2.0312,9.0625 5.582,12.02 l 26.082,24.812 0.50781,0.42188 c 9.7383,7.875 15.664,19.133 16.852,31.578 0.16797,1.4375 0.16797,2.875 0.16797,4.2305 0,11.094 -3.8086,21.422 -11.094,29.891 l -7.1133,8.2969 c -8.6367,10.156 -21.418,16 -34.965,16 -10.758,0 -21.164,-3.8086 -29.379,-10.578 l -50.043,-31.832 c -14.227,-12.117 -22.434,-29.727 -22.434,-48.438 v -132.84 c 0,-18.633 11.176,-35.398 28.449,-42.512 5.6719,-2.3633 11.598,-3.5586 17.609,-3.5586 12.277,0 23.797,4.832 32.512,13.551 7.6172,7.6133 21.422,7.6133 29.125,0 l 16.426,-16.43 c 8.6367,-8.6367 20.238,-13.461 32.516,-13.461 12.273,0 23.875,4.8281 32.512,13.461 l 12.188,12.195 c 7.6211,7.6133 21.426,7.6992 29.125,-0.0898 l 35.98,-44.359 c 2.4531,-2.2891 5.5,-3.4727 8.7227,-3.4727 h 46.566 c 27.938,0 50.801,22.863 50.801,50.801 0,27.941 -22.863,50.719 -50.891,50.801 -4.6562,0 -9.2266,1.9453 -12.617,5.25 l -1.3555,1.3555 c -4.3164,4.2305 -6.6914,10.152 -6.6914,16.254 0.0859,6.0898 2.4531,11.766 6.6914,15.914 l 44.703,50.801 0.50781,0.50391 c 1.4375,1.3594 2.7969,2.7969 4.0664,4.3164 2.8516,3.2656 8.125,3.668 11.539,1.125 0.13281,-0.0977 0.27734,-0.16797 0.40234,-0.27344 1.6992,-1.5312 2.7969,-3.5586 2.875,-5.8438 0.17187,-2.2812 -0.50781,-4.3984 -2.0312,-6.0977 -1.5234,-1.8594 -3.2148,-3.5586 -4.9141,-5.25 l -44.621,-50.629 -0.50781,-0.51562 c -1.1875,-1.1836 -1.6914,-2.5391 -1.7773,-4.1523 0,-1.6836 0.50781,-2.957 1.6992,-4.1406 l 1.3516,-1.3555 c 0.25781,-0.25781 0.42188,-0.33594 0.76562,-0.33594 37.336,0 67.73,-30.395 67.73,-67.738 0,-37.336 -30.398,-67.73 -67.73,-67.73 h -46.566 c -7.9609,0 -15.324,3.043 -20.914,8.7227 l -35.895,44.273 c -1.4453,1.2734 -3.6406,1.1836 -5.082,-0.16797 l -12.105,-12.113 c -11.848,-11.941 -27.684,-18.453 -44.531,-18.453 -16.852,0 -32.688,6.5156 -44.535,18.453 l -16.34,16.344 c -1.4453,1.4375 -3.8125,1.4375 -5.25,0 -11.855,-11.855 -27.605,-18.465 -44.449,-18.465 -8.2969,0 -16.426,1.6133 -24.129,4.832 -23.625,9.7383 -38.863,32.59 -38.863,58.168 v 132.84 c 0,23.961 10.5,46.488 28.957,61.812 l 50.125,31.832 c 11.09,9.0547 25.23,14.137 39.711,14.137 18.453,0 35.902,-8.0469 47.836,-21.926 l 7.1172,-8.3047 c 9.8203,-11.426 15.156,-25.988 15.156,-40.895 0,-2.0234 -0.0859,-3.8945 -0.25781,-5.7539 -1.5273,-16.934 -9.5664,-32.172 -22.691,-42.93 l -24.723,-23.449 h 31.07 c 5.9297,0 11.602,2.5391 15.664,6.9375 l 54.527,59.941 c 0.59375,0.67969 0.93359,1.6133 0.93359,2.4531 0,0.59375 -0.0859,1.0977 -0.33594,1.6133 l -6.0156,12.699 c -3.9805,8.3828 -6.0977,17.781 -6.0977,27.004 0,11.859 3.3867,23.457 9.8242,33.621 11.512,18.375 31.406,29.297 53.086,29.297 h 49.02 c 34.965,0 63.5,-28.531 63.5,-63.5 v -38.184 c -0.004,-4.6367 -3.8164,-8.4375 -8.4727,-8.4375 z m -116.58,25.652 c 2.9609,-6.2617 4.4023,-12.867 4.4023,-19.73 0,-11.426 -4.2305,-22.348 -11.941,-30.898 l -54.523,-60.031 c -12.02,-13.211 -29.121,-20.746 -46.992,-20.746 h -33.609 c -22.695,0 -41.316,18.633 -41.316,41.402 0,12.535 5.5859,24.219 15.324,32.086 l 0.50391,0.42188 25.996,24.641 c 4.2305,3.5586 6.8555,8.5508 7.3711,14.137 v 1.6992 c 0,4.9141 -1.6992,9.7383 -4.9141,13.461 l -7.1953,8.3047 c -3.8945,4.5742 -9.5664,7.1094 -15.496,7.1094 l -0.17187,-0.42188 v 0.42188 c -4.6562,0 -9.1445,-1.5234 -12.781,-4.4102 l -49.957,-31.75 c -8.7227,-7.2734 -13.715,-17.941 -13.715,-29.297 l 0.004,-132.84 c -0.0859,-11.855 9.0586,-17.695 12.617,-18.969 2.543,-1.1797 5.3359,-1.7773 8.2188,-1.7773 h 0.25 c 5.0781,0 10.328,2.2812 14.137,6.1875 8.6367,8.6289 20.238,13.461 32.516,13.461 12.278,0 23.875,-4.832 32.512,-13.461 l 16.426,-16.344 c 7.6172,-7.707 21.504,-7.707 29.121,-0.0859 l 12.191,12.195 c 8.6367,8.6289 20.156,13.371 32.516,13.461 12.105,-0.0898 23.625,-4.7461 32.172,-13.129 l 29.211,-37.504 c 1.5234,-2.1172 4.0664,-3.293 6.6914,-3.293 h 37.762 c 13.965,0 25.398,11.426 25.398,25.398 0,13.965 -11.43,25.402 -25.398,25.402 -11.602,0 -22.441,4.4883 -30.652,12.699 l -1.4375,1.3594 c -9.0625,9.1445 -14.055,21.246 -14.055,34.027 v 0.59375 c 0.17188,13.039 5.4219,25.145 14.902,34.207 l 0.50391,0.50391 44.707,50.801 c 7.1953,7.1094 11.43,17.012 11.43,27.262 v 54.445 c 0,11.684 -9.4805,21.172 -21.164,21.172 h -48.941 c -11.176,0 -16.512,-7.9648 -17.441,-9.5664 -2.1172,-3.3906 -3.2188,-7.1094 -3.2188,-11.094 0,-2.957 0.67969,-6.0117 2.0352,-8.8047 z m -49.535,-122.02 54.527,60.035 c 10.586,11.594 16.344,26.586 16.344,42.246 0,9.4023 -2.0352,18.465 -6.0117,27.016 l -6.0977,12.699 c -0.25,0.76172 -0.34375,1.1836 -0.34375,1.5234 0,0.76172 0.42188,1.6992 0.59375,2.0352 l 0.0859,0.082 c 0.50781,0.67969 1.2695,1.6133 2.9688,1.6133 h 49.02 c 2.2891,0 4.2305,-1.9492 4.2305,-4.2305 l 0.008,-54.453 c 0,-5.7539 -2.3711,-11.348 -6.5195,-15.32 l -0.50781,-0.59375 -44.621,-50.629 c -12.617,-12.102 -19.73,-28.449 -19.902,-45.973 v -0.25781 -0.59375 c 0,-17.438 6.7695,-33.691 19.051,-45.969 l 1.4414,-1.3594 c 11.348,-11.426 26.414,-17.695 42.594,-17.695 4.6562,0 8.4648,-3.8125 8.4648,-8.4688 0,-4.6563 -3.8086,-8.4648 -8.4648,-8.4648 l -33.703,0.004 -27.605,35.473 c -11.855,11.855 -27.688,18.465 -44.535,18.465 -16.852,0 -32.684,-6.6055 -44.535,-18.465 l -12.105,-12.105 c -1.2695,-1.2695 -4.1523,-1.1797 -5.25,0 l -16.34,16.34 c -11.855,11.934 -27.688,18.465 -44.449,18.465 l -0.16797,-0.43359 v 0.43359 c -16.766,0 -32.598,-6.5234 -44.449,-18.465 -1.0977,-1.0195 -1.5234,-1.0977 -2.1953,-1.0977 l -0.17188,-0.082 c -0.59375,0 -1.2695,0.25781 -1.3555,0.25781 l -0.25,0.16797 c -0.0859,0.082 -0.33594,0.17578 -0.50781,0.25781 -0.9375,0.50781 -1.7773,1.0195 -1.7773,3.1406 v 132.84 c 0,6.1016 2.625,11.941 7.2812,15.914 l 49.953,31.75 c 0.58984,0.59375 1.4375,0.85156 2.3711,0.85156 1.0117,0 2.1172,-0.42188 2.793,-1.1836 l 7.1133,-8.3047 c 0.58984,-0.76172 0.84766,-1.5234 0.84766,-2.4531 v -0.16797 -0.17188 c -0.0898,-1.0195 -0.50781,-1.7773 -1.3594,-2.5391 l -0.50781,-0.42188 -26.086,-24.738 c -13.461,-11.094 -21.25,-27.512 -21.25,-44.961 0,-32.172 26.164,-58.336 58.25,-58.336 h 33.609 c 22.609,0 44.285,9.5703 59.523,26.324 z"
           id="path247"
           style="fill:#ffffff"
           transform="matrix(2.7693489,0,0,2.7693489,507.91583,-668.21965)" />
      </g>
      <g
         id="public-areas"
         style="fill:#ffffff">
        <path
           style="fill:#999999;stroke-width:0.727822"
           d="m 1134.8681,-10.472689 c 0,0 -145.65986,73.965884 -145.65986,145.659829 0,71.69395 0,602.09495 0,602.09495 0,0 19.86806,192.25125 332.98896,192.25125 313.1209,0 283.9646,163.94706 283.9646,163.94706 H 980.3826 c 0,0 -202.68248,-62.4678 -202.68248,-351.05637 0,-288.58857 0,-642.98656 0,-642.98656 0,0 52.4812,-159.60566 212.00276,-159.60566 159.52152,0 145.16522,49.695501 145.16522,49.695501 z"
           id="path527"
           transform="translate(-2.8081315e-5)" />
      </g>
      <!-- The 'map-popups' group has been removed. Pins will be generated by the React component. -->
    </g>
  </g>
  <style
     id="style9">
    /* These styles are now less relevant as popups are handled by React, but kept for reference */
    .popup-group .map-popup {
      visibility: hidden;
    }
    .trigger-btn {
      cursor: pointer;
      filter: drop-shadow(0 2px 8px #0004);
    }
  </style>
</svg>
