<?xml version="1.0" encoding="utf-8"?>
<svg xmlns="http://www.w3.org/2000/svg"    viewBox="0 0 175.65129 182.84404" width="100%" height="100%">
  <g id="svg5" transform="matrix(2.460692882537842, 0, 0, 2.460692882537842, -161.41970825195312, -72.03829956054688)">
    <g id="layer1" transform="matrix(1, 0, 0, 1, 42.827099, 25.628445)">
      <g id="Layer_2" transform="translate(-88.519 .252)scale(.2673)">
        <g id="g591">
          <g id="g589">
            <path class="driver-marker" style="stroke-width: 0.271578px; fill: rgb(134, 134, 134);" d="m592.09 602.68 128.62 20.347 144.89 22.919c2.134.337 4.188.679 6.367.353 8.648-1.296 15.185-12.938 7.778-19.701l-23.495-21.456-30.274-27.646c-2.846-2.598-8.458-6.411-7.923-10.395.433-3.224 3.073-6.882 4.541-9.683 8.282-15.803 16.626-31.574 25.1-47.274 4.271-7.914 8.574-15.813 13.014-23.632 2.518-4.435 4.012-8.168 3.825-13.421-.147-4.16-1.489-8.155-2.769-12.074-.937-2.869-2.136-5.796-2.51-8.812-.313-2.525.59-4.194 1.764-6.325.901-1.636-.672.688-.178.049l.922-1.19 12.797-16.526c1.077-1.391 2.275-2.641 3.334-4.053 3.479-4.641 3.212-11.132 2.312-16.524-.26-1.56-.849-3.029-1.487-4.466.964 2.169-.366-1.24-.54-1.74l-3.056-8.784c-1.388-3.991-2.329-8.322-2.359-12.554-.042-5.854-8.616-5.737-9 0l-.013.188 8.839-1.196c.333 1.727.093-1.098.093-1.135.016-1.533.208-3.048.456-4.559.598-3.643 2.086-7.027 3.755-10.288 2.613-5.104 5.409-9.489 9.561-13.482 6.308-6.065 15.665-6.089 23.894-6.641 6.206-.417 12.428-.593 18.629-1.081 3.97-.313 8.104-.638 11.938-1.768 4.448-1.31 7.213-5.565 9.036-9.548 2.372-5.184 3.583-10.983 5.143-16.44a184 184 0 0 1 2.484-8.082c1.682-5.004 3.386-7.194 8.572-8.875 5.539-1.795 11.374-2.891 17.018-4.301 5.896-1.474 12.32-2.401 17.532-5.647 9.779-6.089 17.995-14.753 26.534-22.389 8.369-7.482 17.63-14.547 25.106-22.949 3.464-3.892 5.864-7.999 7.311-13.045.15-.523.932-5.019.481-2.37l.172-1.012q1.077-6.326 2.16-12.65a13070 13070 0 0 1 8.94-51.634c3.17-18.083 6.355-36.165 9.771-54.204 1.426-7.529 3.847-14.763-4.975-19.801-5.072-2.897-10.888-.004-14.408 3.854-23.887 26.18-48.609 51.633-73.867 76.489-39.19 38.566-80.663 74.603-124.03 108.4-29.745 23.185-60.922 44.315-91.672 66.113a1365 1365 0 0 0-30.181 22.009c-4.293 3.224-12.11 7.041-13.827 12.56-1.419 4.563 1.097 10.129 5.897 11.437 5.098 1.389 7.609-5.438 3.468-8.225a2.5 2.5 0 0 0-.77-.384l-4.543 7.771c14.992 6.35 30.062 12.359 44.528 19.854a440 440 0 0 1 14.426 7.82c4.058 2.3 8.636 4.56 11.973 7.871 3.759 3.729-12.08 9.921-13.709 10.743-2.449 1.234-3.94 1.995-5.471 2.443-7.148 2.091-9.774-2.98-12.58-8.395-2.238-4.319-4.432-8.959-7.972-12.388-4.194-4.061-9.326-5.217-14.401-7.39-8.661-3.708-20.178.43-27.599 5.721-5.968 4.255-5.849 12.107-.371 16.338l31.872 24.606 16.884 13.035c2.383 1.84 5.743 3.708 7.547 6.143 1.514 2.043 2.119 5.25 2.828 7.634 1.432 4.823 2.415 9.298 2.506 14.349.091 5.059-1.939 9.941-3.697 14.604-2.147 5.693-4.758 11.283-8.007 16.435-3.266 5.177-12.1 6.175-17.458 8.104-6.649 2.396-11.567-.534-17.437-3.092-15.966-6.956-31.907-14.048-48.47-19.474-7.47-2.446-14.972-4.794-22.483-7.109-3.589-1.106 1.862.909-1.188-.377-1.178-.497-2.375-.842-3.622-1.128-5.496-1.259-11.114-1.641-15.903 1.704-2.87 2.004-4.831 4.902-6.924 7.643l-10.106 13.226-28.881 37.797-13.51 17.68c-3.113 4.074 3.715 9.251 7.068 5.453q.28-.303.54-.625c2.612-3.172.844-7.247-3.182-7.682-5.271-.57-8.462 9.835-8.275 13.518.313 6.18 6.438 10.14 12.09 10.57 5.792.441 5.749-8.563 0-9 .706.054-.534-.156-1.025-.297-1.014-.29-2.058-1.137-2.115-2.258-.08-1.57 1.703-3.955 2.496-4.853q-1.591.66-3.182 1.317l.011.002-3.182-7.683q-.26.323-.54.626l7.068 5.453 45.358-59.36 8.478-11.094c.177-.232 1.582-1.992.679-.879 3.404-4.197 8.19-3.456 12.92-1.975 1.213.381.55.363 2.136.815 2.8.801-1.154-.396 1.384.388q5.53 1.71 11.047 3.454c8.298 2.62 16.632 5.198 24.733 8.387 13.423 5.281 26.98 10.784 39.935 17.128 7.39 3.618 15.464.89 22.755-1.556 4.093-1.373 8.227-3.027 11.839-5.415 4.151-2.743 6.363-7.395 8.536-11.709 4.917-9.767 9.527-20.555 9.023-31.653-.342-7.513-2.697-15.106-5.642-21.994-1.71-3.998-5.527-6.296-8.843-8.856l-15.064-11.63-37.836-29.212 2.068 2.689c-1.208-4.036 5.365-5.593 8.385-6.656 2.833-.997 5.522-2.357 8.608-1.758 1.751.341 3.299 1.292 5.019 1.744 6.047 1.589 9.782 4.991 12.783 10.271 2.394 4.211 4.248 8.628 7.245 12.464 5.452 6.979 15.124 6.842 22.477 3.136 4.942-2.491 10.535-4.584 15.139-7.651 3.376-2.249 5.964-5.651 6.645-9.689.893-5.303-2.634-9.156-6.568-12.082-7.891-5.866-17.176-10.258-25.875-14.765-14.066-7.287-28.792-13.08-43.367-19.253-5.241-2.22-9.873 5.376-4.543 7.771q.42.127.77.384l3.467-8.226c.443.121.141.185 1.202-.792 2.09-1.925 4.573-3.506 6.839-5.219 4.273-3.229 8.573-6.424 12.887-9.598 7.563-5.563 15.196-11.029 22.864-16.445 14.348-10.133 28.837-20.063 43.162-30.23 39.356-27.933 77.125-58.103 113.53-89.776 37.884-32.958 73.416-68.675 107.98-105.07 7.896-8.314 15.743-16.68 23.469-25.153.624-.685 1.196-1.22 2.013-1.722 1.305-.803 2.946.303 3.416 1.594.567 1.557.808-3.577.117-.081a946 946 0 0 0-1.019 5.231c-1.544 8.038-3.01 16.091-4.465 24.145-5.776 31.971-11.289 63.99-16.742 96.017l-.318 1.874c-.167.981-.477 2.51-1.26 4.815-1.004 2.955-2.913 5.119-4.936 7.392-2.436 2.737-5.284 5.059-8.013 7.499l-32.707 29.245-3.276 2.929c1.079-.965-.264.16-1.232.839-1.762 1.235-3.68 2.888-5.697 3.679-5.628 2.208-11.949 3.263-17.821 4.731-6.014 1.503-12.144 2.684-17.823 5.229-8.032 3.599-9.956 13.073-12.131 20.77-1.313 4.646-2.467 9.388-4.066 13.946-1.433 4.084-3.083 6.234-7.251 6.979-4.024.721-8.19.886-12.269 1.093-15.107.767-32.163-.332-43.792 10.851-8.875 8.534-17.69 24.721-15.259 37.336 1.012 5.253 8.518 3.604 8.839-1.196l.013-.188h-9c.055 7.664 2.664 14.896 5.151 22.047 1.834 5.272 5.952 13.646.33 18.357-1.427 1.195-2.552 3.294-3.684 4.757l-7.526 9.719c-4.07 5.257-8.088 10.142-7.779 17.234.315 7.229 4.498 13.71 5.278 20.886.513 4.711-2.227 8.204-4.412 12.093-2.259 4.018-4.478 8.06-6.688 12.104-9.085 16.633-17.946 33.388-26.764 50.162a4219 4219 0 0 0-6.047 11.542c-4.327 8.292-2.214 14.497 3.896 20.937 6.621 6.976 14.206 13.165 21.299 19.643l32.444 29.627c2.143 1.957 7.967 5.664 2.224 8.018-1.543.633-1.995.288-3.835-.004l-146.52-23.176q-63.326-10.018-126.66-20.034c-5.73-.94-8.17 7.74-2.45 8.64z" id="path587"/>
            <path class="driver-marker" style="stroke-width: 0.271578px; fill: rgb(255, 0, 0);" d="M 1044.97 122.233 C 1060.03 105.992 1093.48 55.541 1040.07 113.946 C 1024.23 131.266 1002.18 153.497 987.925 167.526 C 948.735 206.092 907.262 242.129 863.895 275.926 C 834.15 299.111 802.973 320.241 772.223 342.039 C 762.063 349.237 752.002 356.574 742.042 364.048 C 737.749 367.272 753.119 366.928 757.433 363.754 C 764.996 358.191 772.629 352.725 780.297 347.309 C 794.645 337.176 809.134 327.246 823.459 317.079 C 862.815 289.146 900.584 258.976 936.989 227.303 C 974.873 194.345 1010.84 159.035 1044.97 122.233 Z" id="path-1"/>
          </g>
        </g>
      </g>
      <g id="g1866">
        <g class="popup-group" id="g28" style="fill:#fff" transform="translate(180.83 -7.974)scale(.10259)">
          <circle id="trigger1" class="trigger-btn" cx="178.157" cy="372.616" r="29.137" fill="#ff9800" stroke="#333" stroke-width="2" style="fill: rgb(255, 255, 255); cursor: pointer; filter: drop-shadow(rgba(0, 0, 0, 0.267) 0px 2px 8px);"/>
          <g class="map-popup" id="popup1" style="fill: rgb(255, 255, 255); opacity: 0; pointer-events: none; transition-duration: 0.2s; transition-property: opacity;">
            <rect x="138.157" y="302.616" width="160" height="60" rx="12" fill="#fff" stroke="#333" stroke-width="0rem" id="rect23" style="fill: rgb(255, 255, 255); filter: drop-shadow(rgba(0, 0, 0, 0.133) 0px 2px 12px);"/>
            <text x="148.157" y="337.616" id="text25" style="fill: rgb(255, 255, 255); white-space: pre; font-family: sans-serif; font-size: 18px; line-height: 28.8px;">Las Vegas Strip</text>
          </g>
        </g>
        <g class="popup-group" id="g698" style="fill:#fff" transform="translate(180.203 -5.781)scale(.10259)">
          <circle id="circle690" class="trigger-btn" cx="-673.648" cy="1013.832" r="29.137" fill="#ff9800" stroke="#333" stroke-width="2" style="fill: rgb(255, 255, 255); cursor: pointer; filter: drop-shadow(rgba(0, 0, 0, 0.267) 0px 2px 8px);"/>
          <g class="map-popup" id="g696" style="fill: rgb(255, 255, 255); opacity: 0; pointer-events: none; transition-duration: 0.2s; transition-property: opacity;">
            <rect x="-713.648" y="943.832" width="160" height="60" rx="12" fill="#fff" stroke="#333" stroke-width="0rem" id="rect692" style="fill: rgb(255, 255, 255); filter: drop-shadow(rgba(0, 0, 0, 0.133) 0px 2px 12px);"/>
            <text x="-703.648" y="978.832" id="text694" style="fill: rgb(255, 255, 255); white-space: pre; font-family: sans-serif; font-size: 18px; line-height: 28.8px;">Las Vegas Strip</text>
          </g>
        </g>
        <g class="popup-group" id="g923" style="fill:#fff" transform="translate(183.624 -2.467)scale(.10259)">
          <circle id="circle915" class="trigger-btn" cx="-539.342" cy="1136.836" r="29.137" fill="#ff9800" stroke="#333" stroke-width="2" style="fill: rgb(255, 255, 255); cursor: pointer; filter: drop-shadow(rgba(0, 0, 0, 0.267) 0px 2px 8px);"/>
          <g class="map-popup" id="g921" style="fill: rgb(255, 255, 255); opacity: 0; pointer-events: none; transition-duration: 0.2s; transition-property: opacity;">
            <rect x="-579.342" y="1066.836" width="160" height="60" rx="12" fill="#fff" stroke="#333" stroke-width="0rem" id="rect917" style="fill: rgb(255, 255, 255); filter: drop-shadow(rgba(0, 0, 0, 0.133) 0px 2px 12px);"/>
            <text x="-569.342" y="1101.836" id="text919" style="fill: rgb(255, 255, 255); white-space: pre; font-family: sans-serif; font-size: 18px; line-height: 28.8px;">Las Vegas Strip</text>
          </g>
        </g>
        <g class="popup-group" id="g1416" style="fill:#fff" transform="translate(173.851 -.127)scale(.10259)">
          <circle id="circle1408" class="trigger-btn" cx="-539.342" cy="1136.836" r="29.137" fill="#ff9800" stroke="#333" stroke-width="2" style="fill: rgb(255, 255, 255); cursor: pointer; filter: drop-shadow(rgba(0, 0, 0, 0.267) 0px 2px 8px);"/>
          <g class="map-popup" id="g1414" style="fill: rgb(255, 255, 255); opacity: 0; pointer-events: none; transition-duration: 0.2s; transition-property: opacity;">
            <rect x="-579.342" y="1066.836" width="160" height="60" rx="12" fill="#fff" stroke="#333" stroke-width="0rem" id="rect1410" style="fill: rgb(255, 255, 255); filter: drop-shadow(rgba(0, 0, 0, 0.133) 0px 2px 12px);"/>
            <text x="-569.342" y="1101.836" id="text1412" style="fill: rgb(255, 255, 255); white-space: pre; font-family: sans-serif; font-size: 18px; line-height: 28.8px;">Las Vegas Strip</text>
          </g>
        </g>
        <g class="popup-group" id="g1495" style="fill:#fff" transform="translate(164.363 -6.053)scale(.10259)">
          <circle id="circle1487" class="trigger-btn" cx="-539.342" cy="1136.836" r="29.137" fill="#ff9800" stroke="#333" stroke-width="2" style="fill: rgb(255, 255, 255); cursor: pointer; filter: drop-shadow(rgba(0, 0, 0, 0.267) 0px 2px 8px);"/>
          <g class="map-popup" id="g1493" style="fill: rgb(255, 255, 255); opacity: 0; pointer-events: none; transition-duration: 0.2s; transition-property: opacity;">
            <rect x="-579.342" y="1066.836" width="160" height="60" rx="12" fill="#fff" stroke="#333" stroke-width="0rem" id="rect1489" style="fill: rgb(255, 255, 255); filter: drop-shadow(rgba(0, 0, 0, 0.133) 0px 2px 12px);"/>
            <text x="-569.342" y="1101.836" id="text1491" style="fill: rgb(255, 255, 255); white-space: pre; font-family: sans-serif; font-size: 18px; line-height: 28.8px;">Las Vegas Strip</text>
          </g>
        </g>
        <g class="popup-group" id="g1505" style="display:inline;fill:#fff" transform="translate(160.744 -2.71)scale(.10259)">
          <circle id="circle1497" class="trigger-btn" cx="-539.342" cy="1136.836" r="29.137" fill="#ff9800" stroke="#333" stroke-width="2" style="fill: rgb(255, 255, 255); cursor: pointer; filter: drop-shadow(rgba(0, 0, 0, 0.267) 0px 2px 8px);"/>
          <g class="map-popup" id="g1503" style="fill: rgb(255, 255, 255); opacity: 0; pointer-events: none; transition-duration: 0.2s; transition-property: opacity;">
            <rect x="-579.342" y="1066.836" width="160" height="60" rx="12" fill="#fff" stroke="#333" stroke-width="0rem" id="rect1499" style="fill: rgb(255, 255, 255); filter: drop-shadow(rgba(0, 0, 0, 0.133) 0px 2px 12px);"/>
            <text x="-569.342" y="1101.836" id="text1501" style="fill: rgb(255, 255, 255); white-space: pre; font-family: sans-serif; font-size: 18px; line-height: 28.8px;">Las Vegas Strip</text>
          </g>
        </g>
        <g class="popup-group" id="g1515" style="fill:#fff" transform="translate(176.536 12.893)scale(.10259)">
          <circle id="circle1507" class="trigger-btn" cx="-539.342" cy="1136.836" r="29.137" fill="#ff9800" stroke="#333" stroke-width="2" style="fill: rgb(255, 255, 255); cursor: pointer; filter: drop-shadow(rgba(0, 0, 0, 0.267) 0px 2px 8px);"/>
          <g class="map-popup" id="g1513" style="fill: rgb(255, 255, 255); opacity: 0; pointer-events: none; transition-duration: 0.2s; transition-property: opacity;">
            <rect x="-579.342" y="1066.836" width="160" height="60" rx="12" fill="#fff" stroke="#333" stroke-width="0rem" id="rect1509" style="fill: rgb(255, 255, 255); filter: drop-shadow(rgba(0, 0, 0, 0.133) 0px 2px 12px);"/>
            <text x="-569.342" y="1101.836" id="text1511" style="fill: rgb(255, 255, 255); white-space: pre; font-family: sans-serif; font-size: 18px; line-height: 28.8px;">Las Vegas Strip</text>
          </g>
        </g>
        <g class="popup-group" id="g1625" style="fill:#fff" transform="translate(168.118 27.426)scale(.10259)">
          <circle id="circle1617" class="trigger-btn" cx="-539.342" cy="1136.836" r="29.137" fill="#ff9800" stroke="#333" stroke-width="2" style="fill: rgb(255, 255, 255); cursor: pointer; filter: drop-shadow(rgba(0, 0, 0, 0.267) 0px 2px 8px);"/>
          <g class="map-popup" id="g1623" style="fill: rgb(255, 255, 255); opacity: 0; pointer-events: none; transition-duration: 0.2s; transition-property: opacity;">
            <rect x="-579.342" y="1066.836" width="160" height="60" rx="12" fill="#fff" stroke="#333" stroke-width="0rem" id="rect1619" style="fill: rgb(255, 255, 255); filter: drop-shadow(rgba(0, 0, 0, 0.133) 0px 2px 12px);"/>
            <text x="-569.342" y="1101.836" id="text1621" style="fill: rgb(255, 255, 255); white-space: pre; font-family: sans-serif; font-size: 18px; line-height: 28.8px;">Las Vegas Strip</text>
          </g>
        </g>
        <g class="popup-group" id="g1635" style="fill:#fff" transform="translate(142.063 20.197)scale(.10259)">
          <circle id="circle1627" class="trigger-btn" cx="-539.342" cy="1136.836" r="29.137" fill="#ff9800" stroke="#333" stroke-width="2" style="fill: rgb(255, 255, 255); cursor: pointer; filter: drop-shadow(rgba(0, 0, 0, 0.267) 0px 2px 8px);"/>
          <g class="map-popup" id="g1633" style="fill: rgb(255, 255, 255); opacity: 0; pointer-events: none; transition-duration: 0.2s; transition-property: opacity;">
            <rect x="-579.342" y="1066.836" width="160" height="60" rx="12" fill="#fff" stroke="#333" stroke-width="0rem" id="rect1629" style="fill: rgb(255, 255, 255); filter: drop-shadow(rgba(0, 0, 0, 0.133) 0px 2px 12px);"/>
            <text x="-569.342" y="1101.836" id="text1631" style="fill: rgb(255, 255, 255); white-space: pre; font-family: sans-serif; font-size: 18px; line-height: 28.8px;">Las Vegas Strip</text>
          </g>
        </g>
        <g class="popup-group" id="g1655" style="fill:#fff" transform="translate(130.182 43.633)scale(.10259)">
          <circle id="circle1647" class="trigger-btn" cx="-539.342" cy="1136.836" r="29.137" fill="#ff9800" stroke="#333" stroke-width="2" style="fill: rgb(255, 255, 255); cursor: pointer; filter: drop-shadow(rgba(0, 0, 0, 0.267) 0px 2px 8px);"/>
          <g class="map-popup" id="g1653" style="fill: rgb(255, 255, 255); opacity: 0; pointer-events: none; transition-duration: 0.2s; transition-property: opacity;">
            <rect x="-579.342" y="1066.836" width="160" height="60" rx="12" fill="#fff" stroke="#333" stroke-width="0rem" id="rect1649" style="fill: rgb(255, 255, 255); filter: drop-shadow(rgba(0, 0, 0, 0.133) 0px 2px 12px);"/>
            <text x="-569.342" y="1101.836" id="text1651" style="fill: rgb(255, 255, 255); white-space: pre; font-family: sans-serif; font-size: 18px; line-height: 28.8px;">Las Vegas Strip</text>
          </g>
        </g>
        <g class="popup-group" id="g1665" style="fill:#fff" transform="translate(201.268 52.936)scale(.10259)">
          <circle id="circle1657" class="trigger-btn" cx="-539.342" cy="1136.836" r="29.137" fill="#ff9800" stroke="#333" stroke-width="2" style="fill: rgb(255, 255, 255); cursor: pointer; filter: drop-shadow(rgba(0, 0, 0, 0.267) 0px 2px 8px);"/>
          <g class="map-popup" id="g1663" style="fill: rgb(255, 255, 255); opacity: 0; pointer-events: none; transition-duration: 0.2s; transition-property: opacity;">
            <rect x="-579.342" y="1066.836" width="160" height="60" rx="12" fill="#fff" stroke="#333" stroke-width="0rem" id="rect1659" style="fill: rgb(255, 255, 255); filter: drop-shadow(rgba(0, 0, 0, 0.133) 0px 2px 12px);"/>
            <text x="-569.342" y="1101.836" id="text1661" style="fill: rgb(255, 255, 255); white-space: pre; font-family: sans-serif; font-size: 18px; line-height: 28.8px;">Las Vegas Strip</text>
          </g>
        </g>
        <g class="popup-group" id="g1675" style="fill:#fff" transform="translate(184.973 34.027)scale(.10259)">
          <circle id="circle1667" class="trigger-btn" cx="-539.342" cy="1136.836" r="29.137" fill="#ff9800" stroke="#333" stroke-width="2" style="fill: rgb(255, 255, 255); cursor: pointer; filter: drop-shadow(rgba(0, 0, 0, 0.267) 0px 2px 8px);"/>
          <g class="map-popup" id="g1673" style="fill: rgb(255, 255, 255); opacity: 0; pointer-events: none; transition-duration: 0.2s; transition-property: opacity;">
            <rect x="-579.342" y="1066.836" width="160" height="60" rx="12" fill="#fff" stroke="#333" stroke-width="0rem" id="rect1669" style="fill: rgb(255, 255, 255); filter: drop-shadow(rgba(0, 0, 0, 0.133) 0px 2px 12px);"/>
            <text x="-569.342" y="1101.836" id="text1671" style="fill: rgb(255, 255, 255); white-space: pre; font-family: sans-serif; font-size: 18px; line-height: 28.8px;">Las Vegas Strip</text>
          </g>
        </g>
        <g class="popup-group" id="g1685" style="fill:#fff" transform="translate(195.686 14.729)scale(.10259)">
          <circle id="circle1677" class="trigger-btn" cx="-539.342" cy="1136.836" r="29.137" fill="#ff9800" stroke="#333" stroke-width="2" style="fill: rgb(255, 255, 255); cursor: pointer; filter: drop-shadow(rgba(0, 0, 0, 0.267) 0px 2px 8px);"/>
          <g class="map-popup" id="g1683" style="fill: rgb(255, 255, 255); opacity: 0; pointer-events: none; transition-duration: 0.2s; transition-property: opacity;">
            <rect x="-579.342" y="1066.836" width="160" height="60" rx="12" fill="#fff" stroke="#333" stroke-width="0rem" id="rect1679" style="fill: rgb(255, 255, 255); filter: drop-shadow(rgba(0, 0, 0, 0.133) 0px 2px 12px);"/>
            <text x="-569.342" y="1101.836" id="text1681" style="fill: rgb(255, 255, 255); white-space: pre; font-family: sans-serif; font-size: 18px; line-height: 28.8px;">Las Vegas Strip</text>
          </g>
        </g>
        <g class="popup-group" id="g1695" style="fill:#fff" transform="translate(195.843 4.377)scale(.10259)">
          <circle id="circle1687" class="trigger-btn" cx="-539.342" cy="1136.836" r="29.137" fill="#ff9800" stroke="#333" stroke-width="2" style="fill: rgb(255, 255, 255); cursor: pointer; filter: drop-shadow(rgba(0, 0, 0, 0.267) 0px 2px 8px);"/>
          <g class="map-popup" id="g1693" style="fill: rgb(255, 255, 255); opacity: 0; pointer-events: none; transition-duration: 0.2s; transition-property: opacity;">
            <rect x="-579.342" y="1066.836" width="160" height="60" rx="12" fill="#fff" stroke="#333" stroke-width="0rem" id="rect1689" style="fill: rgb(255, 255, 255); filter: drop-shadow(rgba(0, 0, 0, 0.133) 0px 2px 12px);"/>
            <text x="-569.342" y="1101.836" id="text1691" style="fill: rgb(255, 255, 255); white-space: pre; font-family: sans-serif; font-size: 18px; line-height: 28.8px;">Las Vegas Strip</text>
          </g>
        </g>
        <g class="popup-group" id="g1705" style="fill:#fff" transform="translate(200.663 -4.169)scale(.10259)">
          <circle id="circle1697" class="trigger-btn" cx="-539.342" cy="1136.836" r="29.137" fill="#ff9800" stroke="#333" stroke-width="2" style="fill: rgb(255, 255, 255); cursor: pointer; filter: drop-shadow(rgba(0, 0, 0, 0.267) 0px 2px 8px);"/>
          <g class="map-popup" id="g1703" style="fill: rgb(255, 255, 255); opacity: 0; pointer-events: none; transition-duration: 0.2s; transition-property: opacity;">
            <rect x="-579.342" y="1066.836" width="160" height="60" rx="12" fill="#fff" stroke="#333" stroke-width="0rem" id="rect1699" style="fill: rgb(255, 255, 255); filter: drop-shadow(rgba(0, 0, 0, 0.133) 0px 2px 12px);"/>
            <text x="-569.342" y="1101.836" id="text1701" style="fill: rgb(255, 255, 255); white-space: pre; font-family: sans-serif; font-size: 18px; line-height: 28.8px;">Las Vegas Strip</text>
          </g>
        </g>
        <g class="popup-group" id="g1715" style="fill:#fff" transform="translate(200.856 -20.42)scale(.10259)">
          <circle id="circle1707" class="trigger-btn" cx="-539.342" cy="1136.836" r="29.137" fill="#ff9800" stroke="#333" stroke-width="2" style="fill: rgb(255, 255, 255); cursor: pointer; filter: drop-shadow(rgba(0, 0, 0, 0.267) 0px 2px 8px);"/>
          <g class="map-popup" id="g1713" style="fill: rgb(255, 255, 255); opacity: 0; pointer-events: none; transition-duration: 0.2s; transition-property: opacity;">
            <rect x="-579.342" y="1066.836" width="160" height="60" rx="12" fill="#fff" stroke="#333" stroke-width="0rem" id="rect1709" style="fill: rgb(255, 255, 255); filter: drop-shadow(rgba(0, 0, 0, 0.133) 0px 2px 12px);"/>
            <text x="-569.342" y="1101.836" id="text1711" style="fill: rgb(255, 255, 255); white-space: pre; font-family: sans-serif; font-size: 18px; line-height: 28.8px;">Las Vegas Strip</text>
          </g>
        </g>
        <g class="popup-group" id="g1725" style="fill:#fff" transform="translate(217.956 -26.624)scale(.10259)">
          <circle id="circle1717" class="trigger-btn" cx="-539.342" cy="1136.836" r="29.137" fill="#ff9800" stroke="#333" stroke-width="2" style="fill: rgb(255, 255, 255); cursor: pointer; filter: drop-shadow(rgba(0, 0, 0, 0.267) 0px 2px 8px);"/>
          <g class="map-popup" id="g1723" style="fill: rgb(255, 255, 255); opacity: 0; pointer-events: none; transition-duration: 0.2s; transition-property: opacity;">
            <rect x="-579.342" y="1066.836" width="160" height="60" rx="12" fill="#fff" stroke="#333" stroke-width="0rem" id="rect1719" style="fill: rgb(255, 255, 255); filter: drop-shadow(rgba(0, 0, 0, 0.133) 0px 2px 12px);"/>
            <text x="-569.342" y="1101.836" id="text1721" style="fill: rgb(255, 255, 255); white-space: pre; font-family: sans-serif; font-size: 18px; line-height: 28.8px;">Las Vegas Strip</text>
          </g>
        </g>
        <g class="popup-group" id="g1735" style="fill:#fff" transform="translate(225.21 -37.71)scale(.10259)">
          <circle id="circle1727" class="trigger-btn" cx="-539.342" cy="1136.836" r="29.137" fill="#ff9800" stroke="#333" stroke-width="2" style="fill: rgb(255, 255, 255); cursor: pointer; filter: drop-shadow(rgba(0, 0, 0, 0.267) 0px 2px 8px);"/>
          <g class="map-popup" id="g1733" style="fill: rgb(255, 255, 255); opacity: 0; pointer-events: none; transition-duration: 0.2s; transition-property: opacity;">
            <rect x="-579.342" y="1066.836" width="160" height="60" rx="12" fill="#fff" stroke="#333" stroke-width="0rem" id="rect1729" style="fill: rgb(255, 255, 255); filter: drop-shadow(rgba(0, 0, 0, 0.133) 0px 2px 12px);"/>
            <text x="-569.342" y="1101.836" id="text1731" style="fill: rgb(255, 255, 255); white-space: pre; font-family: sans-serif; font-size: 18px; line-height: 28.8px;">Las Vegas Strip</text>
          </g>
        </g>
        <g class="popup-group" id="g1745" style="fill:#fff" transform="translate(234.268 -41.9)scale(.10259)">
          <circle id="circle1737" class="trigger-btn" cx="-539.342" cy="1136.836" r="29.137" fill="#ff9800" stroke="#333" stroke-width="2" style="fill: rgb(255, 255, 255); cursor: pointer; filter: drop-shadow(rgba(0, 0, 0, 0.267) 0px 2px 8px);"/>
          <g class="map-popup" id="g1743" style="fill: rgb(255, 255, 255); opacity: 0; pointer-events: none; transition-duration: 0.2s; transition-property: opacity;">
            <rect x="-579.342" y="1066.836" width="160" height="60" rx="12" fill="#fff" stroke="#333" stroke-width="0rem" id="rect1739" style="fill: rgb(255, 255, 255); filter: drop-shadow(rgba(0, 0, 0, 0.133) 0px 2px 12px);"/>
            <text x="-569.342" y="1101.836" id="text1741" style="fill: rgb(255, 255, 255); white-space: pre; font-family: sans-serif; font-size: 18px; line-height: 28.8px;">Las Vegas Strip</text>
          </g>
        </g>
        <g class="popup-group" id="g1755" style="fill:#fff" transform="translate(247.185 -52.855)scale(.10259)">
          <circle id="circle1747" class="trigger-btn" cx="-539.342" cy="1136.836" r="29.137" fill="#ff9800" stroke="#333" stroke-width="2" style="fill: rgb(255, 255, 255); cursor: pointer; filter: drop-shadow(rgba(0, 0, 0, 0.267) 0px 2px 8px);"/>
          <g class="map-popup" id="g1753" style="fill: rgb(255, 255, 255); opacity: 0; pointer-events: none; transition-duration: 0.2s; transition-property: opacity;">
            <rect x="-579.342" y="1066.836" width="160" height="60" rx="12" fill="#fff" stroke="#333" stroke-width="0rem" id="rect1749" style="fill: rgb(255, 255, 255); filter: drop-shadow(rgba(0, 0, 0, 0.133) 0px 2px 12px);"/>
            <text x="-569.342" y="1101.836" id="text1751" style="fill: rgb(255, 255, 255); white-space: pre; font-family: sans-serif; font-size: 18px; line-height: 28.8px;">Las Vegas Strip</text>
          </g>
        </g>
      </g>
      <path id="tweet-marker" class="tweet-marker" style="stroke-width: 0.271578px; fill: rgb(255, 255, 255);" d="M200.382 9.115a.317.317 0 1 0-.035.634.317.317 0 0 0 .035-.634m4.866.558a.03.03 0 0 0-.021.007.03.03 0 0 0-.002.04.03.03 0 0 0 .04.003.03.03 0 0 0 .002-.041.03.03 0 0 0-.02-.01m-2.613 1.33a1 1 0 0 0-.705 1.667 1.001 1.001 0 1 0 .705-1.667m-4.866.11a.621.621 0 1 0 .05 1.243.621.621 0 0 0-.05-1.244m-4.86.348q-.005 0-.007.002a.01.01 0 0 0 0 .012q.005.004.012 0a.01.01 0 0 0 0-.012zm14.644.807-.006.002a.01.01 0 0 0 0 .011q.004.005.011 0a.01.01 0 0 0 .001-.01zm4.885.21a.066.066 0 0 0-.053.11.067.067 0 0 0 .093.005.065.065 0 0 0-.04-.114m-12.38.795a1.036 1.036 0 1 0 .735 1.808 1.035 1.035 0 0 0-.735-1.808m-4.87.113a.657.657 0 0 0-.463 1.098.657.657 0 1 0 .98-.88.66.66 0 0 0-.518-.218m9.754.216a.977.977 0 1 0 .082 1.95.977.977 0 0 0-.082-1.95m-22.699.656a.99.99 0 0 0-.807 1.603.993.993 0 1 0 .807-1.603m-4.87.334a.066.066 0 0 0-.06.105.065.065 0 1 0 .06-.105m32.5.075a.179.179 0 0 0-.143.298.179.179 0 1 0 .143-.299m-22.783.134a1.036 1.036 0 1 0 .613 1.853 1.036 1.036 0 0 0-.613-1.853m15.28 1.192a.89.89 0 1 0 .07 1.78.89.89 0 0 0-.07-1.78m-4.87.09a.537.537 0 1 0 .043 1.074.537.537 0 0 0-.043-1.074m9.748.069a.999.999 0 0 0-.705 1.667 1.001 1.001 0 1 0 .705-1.667m-14.611.196v.004q.002.002.005 0v-.004zm19.489.086a.993.993 0 1 0 .082 1.983.993.993 0 0 0-.082-1.983m-27.759.497a1.036 1.036 0 1 0 .613 1.853 1.036 1.036 0 0 0-.613-1.853m-4.89.265a.18.18 0 1 0 .026.358.18.18 0 0 0-.026-.358m9.743.328a1.036 1.036 0 1 0 .613 1.853 1.036 1.036 0 0 0-.613-1.853m15.453.922a1.012 1.012 0 1 0 .082 2.024 1.012 1.012 0 0 0-.082-2.024m4.88.243a1.036 1.036 0 1 0 .085 2.072 1.036 1.036 0 0 0-.086-2.072m-27.908.409a.999.999 0 0 0-.814 1.617 1.001 1.001 0 1 0 .814-1.617m-4.872.403q-.004 0-.006.002a.01.01 0 0 0 0 .011q.004.006.01.002a.01.01 0 0 0 .001-.012q-.002-.003-.005-.003m9.725.153a1.035 1.035 0 0 0-.843 1.675 1.036 1.036 0 1 0 .843-1.675m20.48 1.342a1.036 1.036 0 1 0 .735 1.808 1.036 1.036 0 0 0-.736-1.808m-28.057.256a.976.976 0 1 0-.049 1.952.976.976 0 0 0 .049-1.952m32.938.012a1.036 1.036 0 1 0 .084 2.073 1.036 1.036 0 0 0-.084-2.073m-37.806.348a.03.03 0 0 0-.021.005.03.03 0 0 0-.005.04c.009.012.027.014.04.005a.03.03 0 0 0 .005-.04.03.03 0 0 0-.02-.01m9.722.196a1.012 1.012 0 1 0-.053 2.025 1.012 1.012 0 0 0 .053-2.025m4.836 1.214a.389.389 0 0 0-.317.63.39.39 0 1 0 .614-.48.39.39 0 0 0-.297-.15m-12.411.335a1.001 1.001 0 1 0-.05 2.001 1.001 1.001 0 0 0 .05-2m33.084.213a1.036 1.036 0 1 0 .084 2.073 1.036 1.036 0 0 0-.084-2.073m-4.854.38a.39.39 0 1 0 .032.78.39.39 0 0 0-.032-.78m-23.381.11a.89.89 0 1 0-.047 1.78.89.89 0 0 0 .047-1.78m24.261.272q-.008 0-.01.005-.002.008.006.01.007 0 .01-.005.002-.008-.006-.01m-26.98 1.711a1.035 1.035 0 0 0-.842 1.675 1.036 1.036 0 1 0 .842-1.675m-4.897.132a.317.317 0 1 0 .044.634.317.317 0 0 0-.044-.634m27.589.51-.004.002q0 .004.002.005.002 0 .004-.003zm3.304.315a.657.657 0 1 0 .644.843.658.658 0 0 0-.644-.843m3.326 1.008a.622.622 0 1 0 .02 1.243.622.622 0 0 0-.02-1.243m-32.055.58a.622.622 0 1 0-.032 1.244.622.622 0 0 0 .032-1.244m4.855.682a.536.536 0 0 0-.437.868.537.537 0 1 0 .437-.868M211 29.28a.317.317 0 1 0-.052.633.317.317 0 0 0 .052-.633m-7.641 1.16a.537.537 0 1 0 .018 1.073.537.537 0 0 0-.018-1.073m3.316.47a1.036 1.036 0 1 0 .036 2.075 1.036 1.036 0 0 0-.036-2.074m-28.944.368a.658.658 0 1 0 .39 1.178.658.658 0 0 0-.39-1.178m32.262.638a1.001 1.001 0 1 0 .036 2.001 1.001 1.001 0 0 0-.036-2.001m3.327 1.94a.03.03 0 0 0-.025.02.03.03 0 0 0 .02.036.03.03 0 0 0 .035-.02.03.03 0 0 0-.02-.035zm-38.328.203-.006.002a.01.01 0 0 0-.001.011q.006.006.011.001a.01.01 0 0 0 .001-.01zm30.716.315a.89.89 0 1 0 .031 1.779.89.89 0 0 0-.03-1.779m-25.867.283v.005h.005v-.004q-.002-.002-.005-.001m29.184.6a.977.977 0 0 0-.256 1.914.976.976 0 1 0 .256-1.913m3.33 1.939q-.007-.001-.01.005 0 .007.006.01.008 0 .01-.005.003-.008-.005-.01zm-7.618.375a1.013 1.013 0 1 0 .036 2.025 1.013 1.013 0 0 0-.036-2.025m3.318.98a1.002 1.002 0 1 0 .978 1.281 1 1 0 0 0-.978-1.28m3.35 1.793a.18.18 0 1 0-.028.358.18.18 0 0 0 .028-.358m-10.944.198a.39.39 0 1 0 .012.779.39.39 0 0 0-.012-.779m3.306.322a1.036 1.036 0 1 0 .037 2.072 1.036 1.036 0 0 0-.037-2.072m10.928.562a.07.07 0 0 0-.056.046c-.01.035.01.07.045.081a.065.065 0 1 0 .01-.127zm-7.61.408a1.036 1.036 0 1 0 .037 2.071 1.036 1.036 0 0 0-.037-2.071m3.313 1.013a.994.994 0 0 0-.261 1.946.993.993 0 1 0 .26-1.946m-7.6 1.335a1.036 1.036 0 1 0 .037 2.072 1.036 1.036 0 0 0-.037-2.072m3.318.97a1.036 1.036 0 1 0 .036 2.071 1.036 1.036 0 0 0-.036-2.072m-13.36 18.36q-.002.002-.001.005l.005.001v-.005q-.001-.002-.004 0m4.84.701-.006.001q-.005.005-.002.012.005.005.012.002.005-.005.002-.012zm-77.287.034-.006.003q-.004.005 0 .012.005.004.012 0 .005-.008 0-.012zm-4.891.006q-.002.002 0 .005h.005v-.005zm79.373 1.375a.658.658 0 1 0 .06 1.317.658.658 0 0 0-.06-1.317m-76.927.413a.658.658 0 1 0 .466 1.125.658.658 0 0 0-.466-1.125m74.16 1.776a.536.536 0 1 0 .049 1.073.536.536 0 0 0-.049-1.073m4.839.626a.622.622 0 1 0 .058 1.243.622.622 0 0 0-.058-1.243m-76.55.084a.621.621 0 1 0-.001 1.244.621.621 0 0 0 0-1.244m-4.895.081a.536.536 0 1 0-.002 1.075.536.536 0 0 0 .002-1.075m78.653 1.486a1.036 1.036 0 1 0 .097 2.072 1.036 1.036 0 0 0-.097-2.072m-76.204.463a1.036 1.036 0 1 0 0 2.075 1.036 1.036 0 0 0 0-2.075m4.885.715a.317.317 0 1 0-.001.635.317.317 0 0 0 0-.635m76.186.242a.317.317 0 1 0 .03.635.317.317 0 0 0-.03-.635m-7.631.791a.89.89 0 1 0 .083 1.78.89.89 0 0 0-.083-1.78m4.832.597a.999.999 0 0 0-.756 1.598 1.001 1.001 0 1 0 .756-1.598m-75.826.136a1 1 0 1 0 .707 1.707 1.002 1.002 0 0 0-.707-1.707m-4.889.11a.89.89 0 1 0-.002 1.78.89.89 0 0 0 .002-1.78m-16.942.355-.005.003q-.005.005 0 .012.006.005.011 0 .005-.008 0-.012zm4.886.006v.005h.005q.002-.002 0-.005zm80.353.656a.39.39 0 1 0 .036.78.39.39 0 0 0-.036-.78m4.808.084a1.013 1.013 0 1 0 .095 2.024 1.013 1.013 0 0 0-.095-2.024m4.84.743a.976.976 0 1 0 .094 1.95.976.976 0 0 0-.095-1.95m-92.441.305a.658.658 0 1 0 0 1.316.658.658 0 0 0 0-1.316m12.052.172a1.012 1.012 0 1 0-.001 2.026 1.012 1.012 0 0 0 0-2.026m4.888.037a.977.977 0 1 0 .002 1.952.977.977 0 0 0-.002-1.952m-9.777.586a.39.39 0 1 0 .276.114.4.4 0 0 0-.276-.114m77.665.2a1.036 1.036 0 1 0 .097 2.072 1.036 1.036 0 0 0-.097-2.073m-63.004.158a.03.03 0 0 0-.021.008.03.03 0 0 0 0 .04c.01.011.029.012.04 0a.03.03 0 0 0 0-.04.03.03 0 0 0-.02-.008m75.499.19a.03.03 0 0 0-.021.005.03.03 0 0 0-.006.04.03.03 0 0 0 .04.007.03.03 0 0 0 .006-.04.03.03 0 0 0-.019-.011zm-7.655.394a.999.999 0 0 0-.756 1.597 1.001 1.001 0 1 0 .756-1.597m-92.117.75a.622.622 0 1 0-.001 1.244.622.622 0 0 0 0-1.245m4.894.08a.537.537 0 1 0 0 1.074.537.537 0 0 0 0-1.074m7.162.026a1.036 1.036 0 1 0 0 2.074 1.036 1.036 0 0 0 0-2.074m4.89.036a1 1 0 1 0-.004 2 1 1 0 0 0 .003-2m67.56.43a1.036 1.036 0 1 0 .097 2.072 1.036 1.036 0 0 0-.097-2.071m12.49.37-.005.002q-.006.005 0 .012.004.005.01.001.005-.005.002-.011l-.006-.003zm-75.169.189-.006.002q-.004.006 0 .012.005.004.012 0 .004-.006 0-.012zm67.516.148a1.036 1.036 0 1 0 .097 2.072 1.036 1.036 0 0 0-.097-2.072m-86.898.75a1.036 1.036 0 1 0 .733 1.77 1.036 1.036 0 0 0-.733-1.77m7.167.521a1.036 1.036 0 1 0-.002 2.074 1.036 1.036 0 0 0 .002-2.074m4.888 0a1.036 1.036 0 1 0 0 2.074 1.036 1.036 0 0 0 0-2.074m-16.94.194a.317.317 0 1 0-.001.635.317.317 0 0 0 .001-.635m96.66.098a.179.179 0 1 0 .016.358.179.179 0 0 0-.016-.358m-7.649.502a1.036 1.036 0 1 0 .097 2.072 1.036 1.036 0 0 0-.097-2.072m-67.183.064a.179.179 0 0 0-.126.306.18.18 0 1 0 .126-.306m72.018.683a.99.99 0 0 0-.75 1.584.993.993 0 0 0 1.592-1.186.99.99 0 0 0-.842-.398m-91.406.419a1 1 0 0 0-.965.737.39.39 0 0 0-.5.594.39.39 0 0 0 .53.02 1.001 1.001 0 1 0 .936-1.351m-6.079.019a1.037 1.037 0 1 0 0 2.073 1.037 1.037 0 0 0 0-2.073m10.967.09a.89.89 0 1 0 0 1.781.89.89 0 0 0 0-1.78m7.168.375a1.036 1.036 0 1 0-.002 2.074 1.036 1.036 0 0 0 .002-2.074m4.883.041a.992.992 0 1 0-.001 1.984.992.992 0 0 0 .001-1.984m79.36.688a.07.07 0 0 0-.048.012.065.065 0 0 0-.013.092.065.065 0 1 0 .104-.078.06.06 0 0 0-.043-.026m-74.472.24a.065.065 0 0 0-.046.111.066.066 0 0 0 .093 0 .065.065 0 0 0-.047-.112zm-14.494.978a1.012 1.012 0 1 0-.001 2.026 1.012 1.012 0 0 0 0-2.026m-15.856.032a1.037 1.037 0 1 0 0 2.073 1.037 1.037 0 0 0 0-2.073m4.888 0a1.036 1.036 0 1 0 0 2.073 1.036 1.036 0 0 0 0-2.073m6.079.006a.976.976 0 1 0 0 1.95.976.976 0 0 0 0-1.95m9.777.585a.39.39 0 0 0-.276.666.39.39 0 1 0 .276-.666m-14.66.358a.03.03 0 0 0-.02.008.03.03 0 0 0 0 .04.03.03 0 0 0 .04 0 .03.03 0 0 0 0-.04.03.03 0 0 0-.02-.008m12.216 1.44a1.036 1.036 0 1 0 .733 1.77 1.036 1.036 0 0 0-.733-1.77m-4.889.036a1.001 1.001 0 1 0 .002 2 1.001 1.001 0 0 0-.002-2m-10.967.019a1.036 1.036 0 1 0 0 2.073 1.036 1.036 0 0 0 0-2.073m4.889.024a1.012 1.012 0 1 0-.001 2.025 1.012 1.012 0 0 0 .001-2.025m1.196.946-.006.002q-.005.006 0 .012.006.005.012 0 .005-.006 0-.012zm7.327 1.419a1.03 1.03 0 0 0-.943.607.536.536 0 1 0 .038.936q.069.123.172.227a1.035 1.035 0 1 0 1.465-1.466 1.03 1.03 0 0 0-.732-.304m4.888 0a1.036 1.036 0 1 0-.003 2.074 1.036 1.036 0 0 0 .003-2.074m-15.855.091a1 1 0 1 0-.002 2 1 1 0 0 0 .002-2m-4.885.003a.993.993 0 1 0 .702 1.694.993.993 0 0 0-.702-1.694m9.774.108a.89.89 0 1 0 0 1.781.89.89 0 0 0 0-1.781m1.19.656a.18.18 0 1 0 0 .359.18.18 0 0 0 0-.359m8.59.228v.005h.005v-.005q-.003-.002-.005 0m-1.258 1.358a1.03 1.03 0 0 0-.887.5.658.658 0 1 0 .05 1.147q.046.065.103.123a1.036 1.036 0 1 0 .734-1.77m-4.883.042a1 1 0 0 0-.6.203 1.035 1.035 0 0 0-1.329 1.58 1.035 1.035 0 0 0 1.409.052.993.993 0 0 0 1.222-1.545 1 1 0 0 0-.702-.29m-6.083.074a.977.977 0 1 0 .002 1.952.977.977 0 0 0-.002-1.952m-4.89.796a.18.18 0 1 0 0 .359.18.18 0 0 0 0-.359m6.085.056a.065.065 0 1 0 0 .13.065.065 0 0 0 0-.13m1.249 1.568a1 1 0 1 0-.003 1.999 1 1 0 0 0 .003-2m4.888.378a.621.621 0 1 0-.001 1.244.621.621 0 0 0 .001-1.244m-14.662.55a.07.07 0 0 0-.047.02.065.065 0 0 0 0 .092.066.066 0 0 0 .093 0 .064.064 0 0 0 0-.091.07.07 0 0 0-.046-.02m4.888.058q-.003 0-.005.002a.01.01 0 0 0 0 .012q.006.005.011 0 .006-.005 0-.012zm14.668.002-.006.003a.01.01 0 0 0 0 .012q.005.005.012 0a.01.01 0 0 0 0-.012zm-7.334 2.134a.317.317 0 1 0-.001.634.317.317 0 0 0 .001-.634m-4.888.289a.03.03 0 0 0-.02.008.03.03 0 0 0 0 .04c.01.01.028.01.04 0a.03.03 0 0 0 0-.04.03.03 0 0 0-.02-.008m.344 4.555-.006.003q-.004.005 0 .011a.01.01 0 0 0 .012 0q.004-.005 0-.011zm-4.891.006q-.002.002 0 .005h.005v-.005zm2.446 1.788a.658.658 0 1 0 .466 1.125.658.658 0 0 0-.466-1.125m2.449 2.486a.621.621 0 1 0-.001 1.244.621.621 0 0 0 0-1.244m-4.895.08a.536.536 0 0 0-.38.918.537.537 0 1 0 .38-.917m2.45 1.95a1.036 1.036 0 1 0 0 2.074 1.036 1.036 0 0 0 0-2.074m4.884.714a.317.317 0 1 0-.001.636.317.317 0 0 0 0-.636m-2.44 1.766a1 1 0 1 0-.001 2 1 1 0 0 0 .002-2m-4.888.11a.89.89 0 1 0 0 1.781.89.89 0 0 0 0-1.781m2.647 2.145a1.03 1.03 0 0 0-.876.485l-.017.014a.977.977 0 0 0 1.177 1.536 1.037 1.037 0 0 0-.284-2.035m-5.091.177a1.012 1.012 0 1 0-.001 2.026 1.012 1.012 0 0 0 0-2.026m67.831.094a1.035 1.035 0 1 0 .733 1.77 1.035 1.035 0 0 0-.733-1.77m-4.882.048a.99.99 0 0 0-.702 1.694.993.993 0 1 0 .702-1.694m-52.97.327a.39.39 0 0 0-.275.666.39.39 0 1 0 .275-.666m-14.868.154a.389.389 0 0 0-.276.666.389.389 0 1 0 .552-.552.4.4 0 0 0-.276-.114m62.95.446a.065.065 0 1 0 0 .13.065.065 0 0 0 0-.13m-55.414 1.198a1.03 1.03 0 0 0-.817.401 1.002 1.002 0 0 0-.094 1.497 1 1 0 0 0 1.29.104q.196-.075.355-.231a1.037 1.037 0 0 0-.734-1.77m4.888 0a1.036 1.036 0 1 0 0 2.074 1.036 1.036 0 0 0 0-2.074m-9.98.153a1.036 1.036 0 1 0 0 2.074 1.036 1.036 0 0 0 0-2.074m67.832.118a1.035 1.035 0 0 0-.733 1.77 1.035 1.035 0 1 0 1.466-1.466 1.03 1.03 0 0 0-.733-.304m4.888 0a1.035 1.035 0 1 0 .733 1.77 1.035 1.035 0 0 0-.733-1.77m-9.776.857a.18.18 0 1 0 0 .36.18.18 0 0 0 0-.36M95.4 118.47a1.036 1.036 0 1 0 0 2.074 1.036 1.036 0 0 0 0-2.074m4.89.025a1.012 1.012 0 1 0-.001 2.025 1.012 1.012 0 0 0 0-2.025m-14.87.129a1.036 1.036 0 1 0 0 2.074 1.036 1.036 0 0 0 0-2.074m4.889 0a1.036 1.036 0 1 0 0 2.074 1.036 1.036 0 0 0 0-2.074m67.831.117a1.035 1.035 0 0 0-.733 1.77 1.035 1.035 0 1 0 1.466-1.466 1.03 1.03 0 0 0-.733-.304m-4.888.037a1.001 1.001 0 1 0 .001 2 1.001 1.001 0 0 0 0-2m-4.882.996-.006.002q-.004.005 0 .011.005.005.011 0 .004-.006 0-.011-.003-.003-.006-.002zm-50.525 1.177a1 1 0 1 0-.002 2 1 1 0 0 0 .002-2m-4.885.003a1 1 0 0 0-.687.277.993.993 0 0 0-.228 1.572.993.993 0 0 0 1.386.016.993.993 0 0 0-.47-1.865m9.774.108a.89.89 0 1 0 0 1.781.89.89 0 0 0 0-1.781m-14.87.006a1.036 1.036 0 1 0 0 2.074 1.036 1.036 0 0 0 0-2.074m67.832.141a1.013 1.013 0 1 0 0 2.026 1.013 1.013 0 0 0 0-2.026m-4.889.038a.976.976 0 1 0 0 1.952.976.976 0 0 0 0-1.952m-43.181.162a.537.537 0 1 0 0 1.075.537.537 0 0 0 0-1.075m52.958.423a.389.389 0 0 0-.275.666.39.39 0 1 0 .275-.666m-48.07.114v.005h.005v-.005q-.003-.002-.005 0m33.41.252a.03.03 0 0 0-.02.008.03.03 0 0 0 0 .04c.011.011.03.011.04 0a.03.03 0 0 0 0-.04.03.03 0 0 0-.02-.008m-40.747 1.16a1.036 1.036 0 1 0 0 2.074 1.036 1.036 0 0 0 0-2.073m-4.887.062a.977.977 0 1 0 .002 1.952.977.977 0 0 0-.002-1.952m48.074.246a1 1 0 1 0-.002 2 1 1 0 0 0 .002-2m-38.293.067a.658.658 0 1 0 0 1.318.658.658 0 0 0 0-1.318m43.18.044a.89.89 0 1 0-.002 1.78.89.89 0 0 0 .003-1.78m-57.85.439a.179.179 0 0 0-.128.306.18.18 0 1 0 .127-.306m7.333 1.623a1 1 0 0 0-.708 1.708 1.002 1.002 0 0 0 1.415-1.415 1 1 0 0 0-.707-.293m48.073.235a1.035 1.035 0 0 0-.733 1.77 1.036 1.036 0 1 0 .733-1.77m-43.185.144a.621.621 0 1 0-.001 1.244.621.621 0 0 0 .001-1.244m52.443.319a1.035 1.035 0 1 0 .734 1.77 1.035 1.035 0 0 0-.734-1.77m-4.882.048a.99.99 0 0 0-.701 1.694.993.993 0 1 0 .701-1.694m-62.223.184a.06.06 0 0 0-.046.019.066.066 0 0 0 0 .092.066.066 0 0 0 .092 0 .065.065 0 0 0-.046-.111m52.964.029a.317.317 0 1 0-.001.635.317.317 0 0 0 .001-.635m-48.075.028q-.005 0-.006.002-.004.005 0 .012.006.005.011 0 .006-.005 0-.012-.002-.002-.005-.002m14.667.002-.006.003q-.004.005 0 .012.005.004.012 0 .005-.005 0-.012zm35.847 2.105a.62.62 0 1 0-.002 1.244.62.62 0 0 0 .002-1.244m-43.18.029a.316.316 0 0 0-.225.541.317.317 0 1 0 .224-.541m52.438.019a1.035 1.035 0 0 0-.733 1.77 1.036 1.036 0 1 0 .733-1.77m4.888 0a1.035 1.035 0 1 0 .734 1.77 1.035 1.035 0 0 0-.734-1.77m-9.252.04a.536.536 0 0 0-.447.834.18.18 0 0 0-.203.035.18.18 0 0 0 0 .254.178.178 0 0 0 .297-.182.536.536 0 1 0 .353-.94m-52.964.23a.03.03 0 0 0-.02.007.03.03 0 0 0 0 .04.03.03 0 0 0 .04 0 .03.03 0 0 0 0-.04.03.03 0 0 0-.02-.008zm45.881 1.09a1.035 1.035 0 1 0 .734 1.77 1.035 1.035 0 0 0-.734-1.77m4.638 1.004a.658.658 0 1 0 .466 1.125.658.658 0 0 0-.466-1.125m9.253.08a1.035 1.035 0 0 0-.733 1.77 1.036 1.036 0 1 0 .733-1.77m-4.887.037a1.001 1.001 0 1 0 .001 2 1.001 1.001 0 0 0-.001-2m-4.883.995-.006.002q-.004.005 0 .012.005.004.012 0 .004-.005 0-.012-.002-.002-.005-.002zm-6.565.329c-2.02.319-.529 2.96.734 1.77a1.035 1.035 0 0 0-.734-1.77m4.888 0a1.035 1.035 0 1 0 .734 1.77 1.035 1.035 0 0 0-.734-1.77m9.004 1.107a1.013 1.013 0 1 0 0 2.026 1.013 1.013 0 0 0 0-2.026m-4.89.038a.976.976 0 1 0 0 1.95.976.976 0 0 0 0-1.95m9.778.585a.39.39 0 1 0 .276.666.39.39 0 0 0-.276-.666m-14.66.366a.03.03 0 0 0-.02.008.03.03 0 0 0 0 .04c.01.01.028.01.04 0a.03.03 0 0 0 0-.04.03.03 0 0 0-.02-.008m-1.676.348a1.035 1.035 0 0 0-.733 1.77 1.036 1.036 0 1 0 .733-1.77m4.116 1.12a1 1 0 1 0-.003 2 1 1 0 0 0 .003-2m4.887.11a.889.889 0 0 0-.63 1.52.89.89 0 1 0 .63-1.52M143.73 137.7a1.013 1.013 0 1 0 0 2.026 1.013 1.013 0 0 0 0-2.026m4.888.623a.389.389 0 0 0-.275.666.39.39 0 1 0 .275-.666m4.115.437a1.035 1.035 0 0 0-.733 1.77 1.036 1.036 0 1 0 .733-1.77m-4.884.724a.316.316 0 0 0-.224.542.318.318 0 1 0 .224-.542m-6.563.783a.89.89 0 1 0-.002 1.78.89.89 0 0 0 .002-1.78m9.003 1.352a.62.62 0 1 0-.002 1.244.62.62 0 0 0 .002-1.244m4.894.089a.537.537 0 1 0 0 1.074.537.537 0 0 0 0-1.074m-6.8.615a1.036 1.036 0 1 0 .734 1.77 1.036 1.036 0 0 0-.733-1.77m-4.88.049a.992.992 0 1 0-.004 1.983.992.992 0 0 0 .003-1.983m9.234 1.66a.658.658 0 1 0 0 1.318.658.658 0 0 0 0-1.319m-6.797.736a1.036 1.036 0 1 0 .734 1.77 1.036 1.036 0 0 0-.734-1.77m4.888 0a1.036 1.036 0 1 0 .734 1.77 1.036 1.036 0 0 0-.734-1.77m-14.87 1.718a.62.62 0 0 0 .879 0c.897-1.603-1.839-1.02-.879 0m5.334-.974a.536.536 0 0 0-.38.918.537.537 0 1 0 .38-.918m9 1.615-.006.002q-.004.005 0 .012.005.004.012 0 .004-.005 0-.012zm4.886.006v.005h.005q.002-.002 0-.005zm-6.794.079a1.036 1.036 0 1 0 .734 1.77 1.036 1.036 0 0 0-.734-1.77m-4.887.037a1 1 0 0 0-.709 1.708 1.002 1.002 0 0 0 1.416-1.416 1 1 0 0 0-.707-.292m-4.651.587a.658.658 0 1 0 0 1.318.658.658 0 0 0 0-1.318m7.094 1.844a1.012 1.012 0 1 0-.001 2.026 1.012 1.012 0 0 0 .001-2.026m-4.889.038a.976.976 0 1 0 0 1.952.976.976 0 0 0 0-1.952m9.777.585a.389.389 0 0 0-.275.666.39.39 0 1 0 .275-.666m-14.659.366a.03.03 0 0 0-.02.008.03.03 0 0 0 0 .04c.01.011.028.011.04 0 .01-.01.01-.028 0-.04a.03.03 0 0 0-.02-.008m.233.263q-.004 0-.006.002-.004.005 0 .012.005.004.011 0 .004-.005 0-.012-.002-.002-.005-.002m2.206 1.205a1 1 0 1 0-.002 2 1 1 0 0 0 .002-2m4.887.11a.89.89 0 1 0 0 1.781.89.89 0 0 0 0-1.78m-2.443 2.298a1.036 1.036 0 1 0 .733 1.77 1.036 1.036 0 0 0-.733-1.77m-4.884.724a.318.318 0 1 0 0 .635.318.318 0 0 0 0-.635m2.44 2.135a.622.622 0 1 0-.001 1.244.622.622 0 0 0 0-1.244m4.893.089a.537.537 0 1 0 0 1.074.537.537 0 0 0 0-1.074m-2.445 2.323a.658.658 0 1 0 .466 1.125.658.658 0 0 0-.466-1.125m-72.858 1.554-.006.003q-.004.005 0 .012a.01.01 0 0 0 .012 0q.004-.005 0-.012zm-4.891.005q-.002.002 0 .005h.005v-.005zm13.56.652-.005.003q-.005.005 0 .012a.01.01 0 0 0 .011 0q.006-.005 0-.012zm-4.89.005q-.003.002 0 .005h.005v-.005zm66.634.879q-.004 0-.006.003-.004.005 0 .012.005.004.012 0 .004-.005 0-.012-.002-.003-.005-.003zm4.886.006v.005h.005q.002-.002 0-.005zm-77.745.247a.658.658 0 1 0-.001 1.318.658.658 0 0 0 .001-1.318m8.67.657a.658.658 0 1 0 .466 1.125.658.658 0 0 0-.466-1.125m-6.22 1.829a.62.62 0 1 0-.002 1.244.62.62 0 0 0 .001-1.244m-4.895.08a.536.536 0 0 0-.38.918.537.537 0 1 0 .38-.917m25.067.07-.006.004q-.004.005 0 .012a.01.01 0 0 0 .011 0q.004-.005 0-.012-.002-.003-.005-.003m-4.891.006q-.003.002 0 .005h.005v-.005zm-6.612.5a.621.621 0 1 0-.001 1.244.621.621 0 0 0 .001-1.243m-4.894.082a.536.536 0 1 0-.001 1.075.536.536 0 0 0 .001-1.075m86.234.4a1.036 1.036 0 1 0 .734 1.77 1.036 1.036 0 0 0-.734-1.77m-4.882.05a.991.991 0 1 0-.003 1.982.991.991 0 0 0 .003-1.982m-67.4.756a.658.658 0 1 0 0 1.318.658.658 0 0 0 0-1.318m-20.173.085a1.035 1.035 0 1 0 .734 1.77 1.035 1.035 0 0 0-.734-1.77m82.684.085a.065.065 0 1 0 0 .13.065.065 0 0 0 0-.13m-74.014.572a1.036 1.036 0 1 0 0 2.075 1.036 1.036 0 0 0 0-2.075m-3.786.058a.317.317 0 0 0-.224.542.317.317 0 1 0 .224-.542m28.95.303q-.005 0-.006.002-.004.006 0 .011a.01.01 0 0 0 .011 0q.004-.005 0-.011-.002-.003-.005-.002m-4.892.005q-.002.002 0 .005h.006v-.005zm-15.387.349a.318.318 0 1 0 0 .635.318.318 0 0 0 0-.635m76.455.182a1.036 1.036 0 1 0 .734 1.77 1.036 1.036 0 0 0-.734-1.77m4.889 0a1.036 1.036 0 1 0 .734 1.77 1.036 1.036 0 0 0-.734-1.77m-50.114.833-.006.002q-.004.005 0 .012.005.004.012 0 .005-.005 0-.012zm-4.89.005q-.004.002 0 .005h.004v-.005zm-17.274.008a.62.62 0 1 0-.002 1.244.62.62 0 0 0 .002-1.244m62.502.01a.18.18 0 1 0 0 .359.18.18 0 0 0 0-.359m-82.678.07a1 1 0 1 0-.002 2 1 1 0 0 0 .002-2m15.283.002a.536.536 0 0 0-.38.917.537.537 0 1 0 .38-.917m-20.17.107a.89.89 0 1 0-.002 1.782.89.89 0 0 0 .001-1.782m33.83.222a.658.658 0 1 0 .466 1.125.658.658 0 0 0-.466-1.125m-20.273.327a1 1 0 0 0-.708 1.707 1.001 1.001 0 1 0 .708-1.707m-4.888.109a.89.89 0 1 0 .63 1.52.89.89 0 0 0-.63-1.52m49.348.504-.006.002q-.004.005 0 .012.005.004.012 0 .005-.005 0-.012zm-4.891.005q-.002.002 0 .005h.005v-.005zm41.77.241a1.036 1.036 0 1 0 .734 1.77 1.036 1.036 0 0 0-.733-1.77m-4.887.037a1 1 0 1 0 0 2 1 1 0 0 0 0-2m-45.227.147a.658.658 0 1 0 .466 1.125.658.658 0 0 0-.466-1.125m-22.164.249a1.035 1.035 0 1 0 .734 1.77 1.035 1.035 0 0 0-.734-1.77m-25.064.482a1.013 1.013 0 1 0 0 2.026 1.013 1.013 0 0 0 0-2.026m4.89.036a.973.973 0 0 0-.924 1.29.39.39 0 1 0 .207.347l.026.03a.977.977 0 1 0 .69-1.667m82.682.082-.006.002q-.004.005 0 .012.005.005.012 0 .004-.005 0-.012-.003-.003-.006-.002m-57.623.115a.317.317 0 1 0-.001.636.317.317 0 0 0 0-.636m8.776.151a.621.621 0 1 0-.001 1.244.621.621 0 0 0 .001-1.244m-4.894.081a.536.536 0 0 0-.38.917.537.537 0 1 0 .38-.917m-38.72.157a.39.39 0 1 0 0 .78.39.39 0 0 0 0-.78m62.907.01a.658.658 0 1 0 .466 1.125.658.658 0 0 0-.466-1.124m-49.348.025a1.013 1.013 0 1 0 .001 2.026 1.013 1.013 0 0 0 0-2.026m4.89.036a.977.977 0 1 0 .002 1.952.977.977 0 0 0-.003-1.952m-3.788.287a.03.03 0 0 0-.02.008.03.03 0 0 0 0 .04c.01.011.028.012.04 0a.03.03 0 0 0 0-.04.03.03 0 0 0-.02-.008m85.127.574a1.012 1.012 0 1 0-.001 2.025 1.012 1.012 0 0 0 0-2.025m-4.889.037a.976.976 0 1 0 0 1.95.976.976 0 0 0 0-1.95m-71.568.047a.03.03 0 0 0-.02.008.03.03 0 0 0 0 .04.03.03 0 0 0 .04 0 .03.03 0 0 0 0-.04.03.03 0 0 0-.02-.008m31.235.116a.621.621 0 1 0-.001 1.244.621.621 0 0 0 0-1.244m-4.894.081a.536.536 0 0 0-.38.918.537.537 0 1 0 .38-.918m-17.274.164a1 1 0 1 0-.002 2 1 1 0 0 0 .002-2m-4.888.11a.89.89 0 1 0 .63 1.52.89.89 0 0 0-.63-1.52m77.166.067c-.1 0-.2.039-.276.115a.39.39 0 1 0 .275-.115m-63.507.238a1.036 1.036 0 1 0 0 2.074 1.036 1.036 0 0 0 0-2.074m-38.724.006a1.035 1.035 0 1 0 .734 1.77 1.035 1.035 0 0 0-.734-1.77m4.89.036a1 1 0 1 0-.003 2.001 1 1 0 0 0 .002-2m82.681.086a.03.03 0 0 0-.02.008.03.03 0 0 0 0 .04c.01.011.029.011.04 0a.03.03 0 0 0 0-.04.03.03 0 0 0-.02-.008m-78.901.535a1.036 1.036 0 1 0 0 2.074 1.036 1.036 0 0 0 0-2.074m4.889.037a1 1 0 1 0 .707 1.707 1.001 1.001 0 0 0-.707-1.707m49.352.005a.621.621 0 1 0-.001 1.243.621.621 0 0 0 0-1.243m-19.303.01a.316.316 0 0 0-.224.542.318.318 0 1 0 .224-.542m14.409.071a.536.536 0 0 0-.38.917.537.537 0 1 0 .38-.917m-48.246.245-.006.003q-.004.005 0 .011a.01.01 0 0 0 .012 0q.004-.006 0-.011zm39.905.34a1.036 1.036 0 1 0 0 2.074 1.036 1.036 0 0 0 0-2.075m40.335.225a1 1 0 1 0-.001 2.001 1 1 0 0 0 0-2m-71.57.092-.005.002q-.004.005 0 .012a.01.01 0 0 0 .011 0q.005-.005 0-.012-.002-.003-.005-.002m76.457.019a.89.89 0 1 0 0 1.78.89.89 0 0 0 0-1.78m-72.277.31a1.013 1.013 0 1 0 0 2.026 1.013 1.013 0 0 0 0-2.026m4.888.036a.977.977 0 1 0 .002 1.952.977.977 0 0 0-.002-1.952m27.05.032a.316.316 0 0 0-.224.542.318.318 0 1 0 .225-.542m-57.003.365a1.035 1.035 0 1 0 .734 1.77 1.035 1.035 0 0 0-.734-1.77m4.888 0a1.035 1.035 0 1 0 .734 1.77 1.035 1.035 0 0 0-.734-1.77m38.725.03a1 1 0 1 0-.002 2.001 1 1 0 0 0 .002-2m-4.888.11a.89.89 0 1 0 0 1.781.89.89 0 0 0 0-1.78m-18.55.05a.39.39 0 1 0 0 .78.39.39 0 0 0 0-.78m42.735.094a1.035 1.035 0 1 0 .734 1.77 1.035 1.035 0 0 0-.734-1.77m-28.074.264a.03.03 0 0 0-.02.008.03.03 0 0 0 0 .04.03.03 0 0 0 .04 0 .03.03 0 0 0 0-.04.03.03 0 0 0-.02-.008m-26.166.11a1.036 1.036 0 1 0 0 2.074 1.036 1.036 0 0 0 0-2.075m4.888 0a1.036 1.036 0 1 0 0 2.074 1.036 1.036 0 0 0 0-2.075m-3.782.2a.18.18 0 1 0 0 .36.18.18 0 0 0 0-.36m58.018.141a.317.317 0 1 0-.001.635.317.317 0 0 0 .001-.635m-13.23.402a1 1 0 1 0-.001 2 1 1 0 0 0 .002-2m-4.888.11a.89.89 0 1 0 0 1.781.89.89 0 0 0 0-1.782m-31.23.004a.18.18 0 1 0 0 .36.18.18 0 0 0 0-.36m76.452.039a1.036 1.036 0 1 0 .734 1.77 1.036 1.036 0 0 0-.734-1.77m-72.278.433a1.035 1.035 0 1 0 .734 1.77 1.035 1.035 0 0 0-.734-1.77m4.889.036a1 1 0 1 0-.002 2.001 1 1 0 0 0 .002-2m62.506.255a.317.317 0 0 0-.225.542.317.317 0 1 0 .225-.542m-87.57.167a1.035 1.035 0 1 0 .734 1.77 1.035 1.035 0 0 0-.735-1.77m33.835.018a1.012 1.012 0 1 0-.001 2.026 1.012 1.012 0 0 0 .001-2.026m-28.953.022a.992.992 0 1 0-.001 1.984.992.992 0 0 0 .001-1.984m33.842.015a.977.977 0 1 0 .002 1.95.977.977 0 0 0-.002-1.95m24.186.265a1 1 0 1 0-.002 2 1 1 0 0 0 .002-2m-4.889.11a.89.89 0 1 0-.002 1.782.89.89 0 0 0 .002-1.782m-28.075.137-.005.003q-.004.005 0 .012a.01.01 0 0 0 .011 0q.004-.005 0-.012zm-21.277.09a1.036 1.036 0 1 0 0 2.074 1.036 1.036 0 0 0 0-2.074m4.883.041a.991.991 0 1 0-.003 1.983.991.991 0 0 0 .003-1.983m-3.782.27a.065.065 0 1 0 .046.111.065.065 0 0 0-.046-.112m33.837.03a.03.03 0 0 0-.02.008.03.03 0 0 0 0 .04c.01.011.029.012.04 0a.03.03 0 0 0 0-.04.03.03 0 0 0-.02-.008m1.18.39a1.012 1.012 0 1 0-.001 2.026 1.012 1.012 0 0 0 0-2.026m4.889.037a.977.977 0 1 0 .002 1.95.977.977 0 0 0-.002-1.95m-31.236.2a.065.065 0 1 0 0 .13.065.065 0 0 0 0-.13m71.569.344a.621.621 0 1 0-.001 1.243.621.621 0 0 0 0-1.243m-72.278.017c-.266 0-.53.102-.733.304-1.385 2.748 3.084 1.715 1.466 0a1.03 1.03 0 0 0-.733-.304m4.888 0c-.265 0-.53.102-.732.304-1.386 2.749 3.084 1.714 1.466 0a1.03 1.03 0 0 0-.734-.304m17.28.024a.39.39 0 1 0 .276.115.4.4 0 0 0-.277-.115m55.004.047a.536.536 0 0 0-.38.917.537.537 0 1 0 .38-.917m-40.344.311a.03.03 0 0 0-.02.008.03.03 0 0 0 0 .04c.01.011.028.012.04 0a.03.03 0 0 0 0-.04.03.03 0 0 0-.02-.008m-23.168.07a1.036 1.036 0 1 0 0 2.074 1.036 1.036 0 0 0 0-2.074m4.889.037a1 1 0 1 0-.002 2 1 1 0 0 0 .002-2m19.297.277a1.013 1.013 0 1 0 0 2.026 1.013 1.013 0 0 0 0-2.026m4.889.037a.977.977 0 1 0 .002 1.95.977.977 0 0 0-.002-1.95m-32.958.055a.18.18 0 0 0-.127.307c.07.07.183.07.253 0a.18.18 0 0 0-.126-.307m23.18.53a.39.39 0 1 0-.002.78.39.39 0 0 0 .002-.78m-9.526.09-.006.001q-.004.005 0 .012a.01.01 0 0 0 .012 0q.004-.005 0-.012zm24.187.27a.03.03 0 0 0-.021.007.03.03 0 0 0 0 .04c.01.011.03.012.04 0a.03.03 0 0 0 0-.04.03.03 0 0 0-.02-.008zm-23.006.074a1.036 1.036 0 1 0 0 2.074 1.036 1.036 0 0 0 0-2.074m4.888.037a1 1 0 1 0-.001 2 1 1 0 0 0 .001-2m45.226.536a.658.658 0 1 0 .466 1.125.658.658 0 0 0-.466-1.125m-67.399.091c-2.949 1.783 2.732 2.452.702.29a1 1 0 0 0-.702-.29m27.056.361-.006.002q-.005.005 0 .012.005.004.012 0 .004-.005 0-.012zm-23.167.05c-3.594 3.847 3.597.052 0 0m4.888 0a1.036 1.036 0 1 0 0 2.074 1.036 1.036 0 0 0 0-2.075m19.297.29a1.035 1.035 0 1 0 .733 1.77 1.035 1.035 0 0 0-.733-1.77m4.89.036a1 1 0 1 0-.002 2.001 1 1 0 0 0 .001-2.001m-19.3.532a.179.179 0 0 0-.126.306.18.18 0 1 0 .127-.306m24.182.457q-.004 0-.006.003-.004.005 0 .011.006.004.012 0 .004-.006 0-.011zm-23.006.054a1.036 1.036 0 1 0 0 2.074 1.036 1.036 0 0 0 0-2.074m4.889 0a1.036 1.036 0 1 0 0 2.074 1.036 1.036 0 0 0 0-2.074m4.888.859a.179.179 0 0 0-.127.306.18.18 0 1 0 .127-.306m-13.401.257a.992.992 0 1 0-.002 1.983.992.992 0 0 0 .002-1.983m53.738.109-.006.002q-.004.006 0 .011.005.005.012 0 .004-.006 0-.011-.003-.003-.006-.002m4.886.006v.005h.005q.002-.002 0-.005zm-44.21.134a1.035 1.035 0 1 0 .734 1.77 1.035 1.035 0 0 0-.734-1.77m4.889 0a1.035 1.035 0 1 0 .733 1.77 1.035 1.035 0 0 0-.733-1.77m-14.415.678a.07.07 0 0 0-.046.02.065.065 0 1 0 .092 0 .07.07 0 0 0-.046-.02m19.303.18a.18.18 0 0 0-.127.307.18.18 0 1 0 .253-.254.18.18 0 0 0-.126-.053m-18.122.222a1.036 1.036 0 1 0 0 2.074 1.036 1.036 0 0 0 0-2.074m4.883.041a.992.992 0 1 0-.002 1.984.992.992 0 0 0 .002-1.984m4.888.927a.07.07 0 0 0-.046.02.065.065 0 1 0 .092 0 .07.07 0 0 0-.046-.02m1.018.397c-.265 0-.53.1-.732.303-1.385 2.748 3.084 1.715 1.466 0a1.03 1.03 0 0 0-.734-.303m4.884.04a1 1 0 0 0-.703.291c-1.346 2.591 2.953 1.65 1.404 0a1 1 0 0 0-.701-.29m4.888.928"/>
      <path style="fill: rgb(216, 216, 216); stroke: rgb(0, 0, 0);" d=""/>
    </g>
  </g>
</svg>
