<?xml version="1.0" encoding="utf-8"?>
<svg xmlns="http://www.w3.org/2000/svg" viewBox="229.6798 33.6605 475.7772 393.2046" width="475.7772px" height="393.2046px">
  <g id="SVGRepo_iconCarrier" transform="matrix(1, 0, 0, 1, 65.84466552734375, -169.72927856445312)">
    <g>
      <path d="m457.17 235.85c0.078125 0 0.16797 0 0.24609-0.011718 1.8984-0.13672 3.3242-1.7812 3.1992-3.6797l-1.7891-25.562c-0.12891-1.8984-1.8008-3.3242-3.6797-3.1992-1.8984 0.13672-3.3242 1.7812-3.1992 3.6797l1.7891 25.562c0.12891 1.8242 1.6445 3.2109 3.4336 3.2109z" style="fill: rgb(255, 255, 255);"/>
      <path d="m528.79 266.8c0.81641 0 1.625-0.28516 2.2812-0.86719l19.18-16.992c1.4258-1.2578 1.5547-3.4336 0.29688-4.8594-1.2578-1.4258-3.4336-1.5547-4.8594-0.29688l-19.18 16.992c-1.4258 1.2578-1.5547 3.4336-0.29688 4.8594 0.67969 0.76953 1.625 1.1641 2.5781 1.1641z" style="fill: rgb(255, 255, 255);"/>
      <path d="m313.76 564.95c-1.8516-0.46094-3.7109 0.66797-4.1719 2.5078l-6.1797 24.867c-0.46094 1.8516 0.66797 3.7109 2.5078 4.1719 0.27734 0.070312 0.5625 0.097656 0.83594 0.097656 1.543 0 2.9531-1.043 3.3359-2.6172l6.1797-24.867c0.46094-1.8281-0.66016-3.6953-2.5078-4.1602z" style="fill: rgb(255, 255, 255);"/>
      <path d="m253.01 513.58-23.488 10.242c-1.7422 0.75781-2.5391 2.793-1.7812 4.5352 0.5625 1.3008 1.832 2.0664 3.1602 2.0664 0.46094 0 0.92578-0.089843 1.3789-0.28516l23.488-10.242c1.7422-0.75781 2.5391-2.793 1.7812-4.5352-0.76953-1.7422-2.7969-2.5391-4.5391-1.7812z" style="fill: rgb(255, 255, 255);"/>
      <path d="m386.85 416.48c3.8086 0.33594 7.1719-2.4883 7.5078-6.2969l10.902-124.61c0.35547-4.0234-2.793-7.4883-6.8281-7.5273l-43.375-0.44141c-29.805-0.30469-59.473-3.9453-88.473-10.855l-81.848-19.512c-4.8398-1.1523-9.2891 3.0195-8.4336 7.9219l3.168 18.203c1.7422 10.016 0.94531 20.309-2.3125 29.941l-10.105 29.824c-5.9336 17.516-3.582 36.773 6.4062 52.34l6.543 10.203c1.1602 1.8125 3.0898 2.9727 5.2266 3.1602zm-19.836-119.72 7.6055 0.66797c1.8984 0.16797 3.2969 1.8398 3.1289 3.7305-0.15625 1.7891-1.6641 3.1406-3.4258 3.1406-0.097657 0-0.20703 0-0.30469-0.011719l-7.6055-0.66797c-1.8984-0.16797-3.2969-1.8398-3.1289-3.7305 0.16797-1.8906 1.832-3.2891 3.7305-3.1289zm-7.7539 88.695 7.6055 0.66797c1.8984 0.16797 3.2969 1.8398 3.1289 3.7305-0.15625 1.7891-1.6641 3.1406-3.4258 3.1406-0.097656 0-0.20703 0-0.30469-0.011719l-7.6055-0.66797c-1.8984-0.16797-3.2969-1.8398-3.1289-3.7305 0.15625-1.8984 1.8203-3.293 3.7305-3.1289zm-21.875-46.602 7.6055 0.66797c1.8984 0.16797 3.2969 1.8398 3.1289 3.7305-0.15625 1.7891-1.6641 3.1406-3.4258 3.1406-0.097656 0-0.20703 0-0.30469-0.011719l-7.6055-0.66797c-1.8984-0.16797-3.2969-1.8398-3.1289-3.7305 0.16797-1.8867 1.8203-3.2852 3.7305-3.1289zm-26.812-47.023 7.6055 0.66797c1.8984 0.16797 3.2969 1.8398 3.1289 3.7305-0.15625 1.7891-1.6641 3.1406-3.4258 3.1406-0.097656 0-0.20703 0-0.30469-0.011719l-7.6055-0.66797c-1.8984-0.16797-3.2969-1.8398-3.1289-3.7305 0.16797-1.8984 1.8203-3.2969 3.7305-3.1289zm-7.7656 88.688 7.6055 0.66797c1.8984 0.16797 3.2969 1.8398 3.1289 3.7305-0.15625 1.7891-1.6641 3.1406-3.4258 3.1406-0.097657 0-0.20703 0-0.30469-0.011719l-7.6055-0.66797c-1.8984-0.16797-3.2969-1.8398-3.1289-3.7305s1.832-3.2969 3.7305-3.1289zm-21.863-46.602 7.6055 0.66797c1.8984 0.16797 3.2969 1.8398 3.1289 3.7305-0.15625 1.7891-1.6641 3.1406-3.4258 3.1406-0.097656 0-0.20703 0-0.30469-0.011719l-7.6055-0.66797c-1.8984-0.16797-3.2969-1.8398-3.1289-3.7305 0.15625-1.8906 1.8203-3.2891 3.7305-3.1289zm-26.816-47.027 7.6055 0.66797c1.8984 0.16797 3.2969 1.8398 3.1289 3.7305-0.15625 1.7891-1.6641 3.1406-3.4258 3.1406-0.097656 0-0.20703 0-0.30469-0.011719l-7.6055-0.66797c-1.8984-0.16797-3.2969-1.8398-3.1289-3.7305 0.16016-1.8984 1.8242-3.2969 3.7305-3.1289zm-7.7617 88.688 7.6055 0.66797c1.8984 0.16797 3.2969 1.8398 3.1289 3.7305-0.15625 1.7891-1.6641 3.1406-3.4258 3.1406-0.097656 0-0.20703 0-0.30469-0.011719l-7.6055-0.66797c-1.8984-0.16797-3.2969-1.8398-3.1289-3.7305 0.16797-1.8867 1.8203-3.293 3.7305-3.1289zm-21.867-46.602 7.6055 0.66797c1.8984 0.16797 3.2969 1.8398 3.1289 3.7305-0.15625 1.7891-1.6641 3.1406-3.4258 3.1406-0.097656 0-0.20703 0-0.30469-0.011719l-7.6055-0.66797c-1.8984-0.16797-3.2969-1.8398-3.1289-3.7305 0.17188-1.8867 1.8242-3.2852 3.7305-3.1289zm-26.812-47.023 7.6055 0.66797c1.8984 0.16797 3.2969 1.8398 3.1289 3.7305-0.15625 1.7891-1.6641 3.1406-3.4258 3.1406-0.097656 0-0.20703 0-0.30469-0.011719l-7.6055-0.67187c-1.8984-0.16797-3.2969-1.8398-3.1289-3.7305 0.16797-1.8867 1.8203-3.2852 3.7305-3.125zm-7.7656 88.688 7.6055 0.66797c1.8984 0.16797 3.2969 1.8398 3.1289 3.7305-0.15625 1.7891-1.6641 3.1406-3.4258 3.1406-0.097657 0-0.20703 0-0.30469-0.011719l-7.6055-0.66797c-1.8984-0.16797-3.2969-1.8398-3.1289-3.7305 0.17188-1.8906 1.832-3.2969 3.7305-3.1289z" style="fill: rgb(145, 145, 145);"/>
      <path d="m491.38 470.95c0.097657 0.011719 0.20703 0.011719 0.30469 0.011719 1.7617 0 3.2656-1.3477 3.4258-3.1406 0.16797-1.8984-1.2383-3.5625-3.1289-3.7305l-14.562-1.2695c-1.8906-0.15625-3.5625 1.2383-3.7305 3.1289-0.16797 1.8906 1.2383 3.5625 3.1289 3.7305z" style="fill: rgb(255, 255, 255);"/>
      <path d="m634.9 332.52-8.0781-5.2734c-1.418-0.92578-1.957-2.7266-1.3008-4.2812l11.699-27.504c1.3203-3.0898 1.0742-6.5156-0.64844-9.3984-1.7305-2.8828-4.6445-4.7031-7.9883-4.9883l-25.555-2.2344c-3.2188-0.28516-6.4336 0.98437-8.6016 3.3867l-74.707 82.805c-1.1797 1.3086-2.6562 1.1992-3.2383 1.0938-0.58203-0.10938-1.9883-0.54297-2.6094-2.1953l-30.75-81.82c-1.4961-3.9766-5.3516-6.6797-9.6055-6.7227l-12.715-0.12891h-0.10938c-5.332 0-9.8711 4.1445-10.332 9.4648l-2.0078 22.965c-0.1875 2.1562-1.9102 2.8555-2.4297 3.0195-0.52344 0.16797-2.332 0.57031-3.7188-1.0938l-26.008-31.172c-1.2188-1.457-3.3945-1.6523-4.8516-0.44141-1.457 1.2188-1.6523 3.3945-0.44141 4.8516l26.008 31.172c2.7461 3.2852 6.9883 4.5352 11.07 3.2461 4.082-1.2773 6.8594-4.7227 7.2227-8.9922l2.0078-22.977c0.15625-1.7891 1.6836-3.1797 3.4727-3.1797h0.039062l12.715 0.12891c1.4258 0.011718 2.7266 0.92578 3.2266 2.2539l17.172 45.676-72.875-6.375c-1.8789-0.15625-3.5625 1.2383-3.7305 3.1289-0.16797 1.8984 1.2383 3.5625 3.1289 3.7305l76.16 6.6602 10.895 28.988c1.2773 3.4141 4.1914 5.8633 7.7734 6.543 3.5898 0.67969 7.1836-0.53125 9.6328-3.2461l24.934-27.629 36.535 3.1992c0.097657 0.011719 0.20703 0.011719 0.30469 0.011719 1.7617 0 3.2656-1.3477 3.4258-3.1406 0.16797-1.8984-1.2383-3.5625-3.1289-3.7305l-31.352-2.7461 31.586-35.012 38.977 3.4141-6.918 16.266c-1.9688 4.6328-0.34375 9.9883 3.8672 12.742l8.0781 5.2734c1.2695 0.83594 1.8594 2.3828 1.457 3.8477l-0.058594 0.19531-21.254-1.8594c-1.8906-0.16797-3.5625 1.2383-3.7305 3.1289s1.2383 3.5625 3.1289 3.7305l19.984 1.75-1.1719 4.2305c-0.35547 1.2773-1.3867 2.2344-2.6953 2.4883l-26.707 5.1875c-2.8438 0.55078-5.3438 2.2812-6.8594 4.7539l-10.402 16.926-165.75-14.504c-1.8906-0.15625-3.5625 1.2383-3.7305 3.1289-0.16797 1.8984 1.2383 3.5625 3.1289 3.7305l162.32 14.199-5.3633 8.7266c-0.88672 1.4375-1.4062 3.0781-1.5156 4.7539l-1.543 23.559-157.18-13.758c-1.8906-0.15625-3.5625 1.2383-3.7305 3.1289-0.16797 1.8984 1.2383 3.5625 3.1289 3.7305l157.33 13.766-0.58984 8.9727c-0.050781 0.74609-0.34375 1.4766-0.83594 2.0469l-21.312 24.766-36.25-3.168c-1.8906-0.15625-3.5625 1.2383-3.7305 3.1289-0.16797 1.8984 1.2383 3.5625 3.1289 3.7305l32.641 2.8555c-0.5625 2.1445-0.43359 4.4375 0.45312 6.582l13.492 32.414-45.195-3.957-0.89453-1.7305c-1.6445-3.168-4.7422-5.2539-8.3047-5.5586l-50.461-4.418c-1.6523-0.14844-3.3359 0.11719-4.8711 0.74609l-10.688 4.418c-0.11719-0.019531-0.23438-0.058594-0.36328-0.070313l-135.12-11.781-9.3398-13.895c-1.7617-2.6172-4.5664-4.2695-7.7031-4.5469l-34.195-2.9922c-11.68-1.0234-22.434-7.5273-28.762-17.398l-4.0352-6.2891 241.41 21.117c0.097656 0.011719 0.20703 0.011719 0.30469 0.011719 1.7617 0 3.2656-1.3477 3.4258-3.1406 0.16797-1.8984-1.2383-3.5625-3.1289-3.7305l-246.72-21.582-21.402-33.367c-1.0234-1.6055-3.1602-2.0664-4.7617-1.043-1.6055 1.0234-2.0664 3.1602-1.043 4.7617l30.129 46.984c7.4766 11.652 20.172 19.336 33.969 20.535l34.195 2.9922c1.0547 0.089844 1.9961 0.64844 2.5898 1.5234l23.902 35.59c2.0078 2.9922 5.3711 4.6836 8.9648 4.5859l29.086-0.99219c1.8398-0.070312 3.3672 1.2578 3.582 3.0703l2.6094 21.777c0.46094 3.8555 3 7.1055 6.6406 8.4727l20.734 7.8242c2.6758 1.0039 5.5703 0.88672 8.1484-0.35547 2.5781-1.2383 4.4883-3.4141 5.3711-6.1289l9.8008-29.984c0.31641-0.96484 1.0312-1.7422 1.9766-2.1367l43.078-17.82c0.51172-0.21484 1.082-0.30469 1.6328-0.25391l50.461 4.418c1.1992 0.10938 2.2422 0.80859 2.793 1.8711l24.727 47.773c1.4062 2.7148 3.918 4.6562 6.8984 5.3438 0.76563 0.17578 1.543 0.26562 2.3203 0.26562 2.2148 0 4.3984-0.70703 6.2109-2.0664l23.902-17.891c3.8086-2.8438 5.1875-7.9023 3.3672-12.289l-22.336-53.668c-0.51172-1.2188-0.28516-2.6094 0.57031-3.6094l23.359-27.141c1.457-1.6914 2.3438-3.8555 2.4883-6.0898l2.5781-39.41c0.039062-0.5625 0.21484-1.1133 0.51172-1.5938l19.789-32.215c0.51172-0.82812 1.3477-1.4062 2.3008-1.5938l26.707-5.1875c3.8867-0.75781 6.957-3.5898 8.0195-7.418l2.2617-8.1875v-0.011718l0.82812-2.9922c1.2109-4.3672-0.53125-8.9727-4.332-11.453zm-41.984-38.336 6.6328-7.3516c0.72656-0.80859 1.8008-1.2305 2.8945-1.1406l25.555 2.2344c1.1211 0.097656 2.0977 0.70703 2.6758 1.6719 0.58203 0.96484 0.66016 2.1172 0.21484 3.1602l-1.9375 4.5664zm-188.77 223.18c-2.8047 1.1602-4.9492 3.4727-5.8945 6.3555l-9.8008 29.984c-0.29687 0.91406-0.93359 1.6445-1.8008 2.0547-0.86719 0.41406-1.8398 0.46094-2.7344 0.11719l-20.734-7.8242c-1.2188-0.46094-2.0781-1.5547-2.2344-2.8438l-2.6094-21.777c-0.64844-5.3906-5.2461-9.3281-10.648-9.1328l-29.086 0.99219c-1.2109 0.050782-2.332-0.53125-3.0117-1.5352l-9.6328-14.348 116.87 10.223zm161.65 18.363c0.60938 1.4766 0.14844 3.168-1.1328 4.1211l-23.902 17.891c-0.83594 0.62109-1.8516 0.83594-2.8633 0.60938-1.0117-0.23438-1.8398-0.86719-2.3125-1.7891l-20.082-38.801 44.43 3.8867z" style="fill: rgb(255, 255, 255);"/>
    </g>
  </g>
</svg>
