<?xml version="1.0" encoding="UTF-8" standalone="no"?>
<svg
   viewBox="144 144 512 512"
   version="1.1"
   id="svg44"
   sodipodi:docname="map.svg"
   inkscape:export-filename="map.svg"

   xmlns:inkscape="http://www.inkscape.org/namespaces/inkscape"
   xmlns:sodipodi="http://sodipodi.sourceforge.net/DTD/sodipodi-0.dtd"
   xmlns="http://www.w3.org/2000/svg"
   xmlns:svg="http://www.w3.org/2000/svg">
  <defs
     id="defs48" />
  <sodipodi:namedview
     id="namedview46"
     inkscape:current-layer="SVGRepo_iconCarrier" />
  <!-- 
      This is the main group containing the track paths.
      The component will extract and render the content within this group.
    -->
  <g
     id="SVGRepo_iconCarrier"
     style="fill:#b3b3b3">
    <!-- 
            Driver Path: This is the outer lane for driver pins.
            - fill="none" prevents it from being a solid shape.
            - stroke="#A0A0A0" and stroke-width="25" make the track visible.
            - stroke-linecap and stroke-linejoin create smoother, rounded track corners.
        -->
    <path
       id="driver-path"
       fill="#ff0000"
       d="m 612.3,194.41 c -3.082,-4.1289 -9.5469,-4.9141 -13.484,-1.4766 -105.33,91.645 -189.15,139.16 -270.21,185.1 l -1.4258,0.80859 c -2.6445,1.4961 -4.3008,4.207 -4.4297,7.25 -0.125,3.0664 1.3086,5.9258 3.8438,7.6562 9.9609,6.7969 17.961,11.781 24.387,15.789 9.3984,5.8594 15.324,9.5508 18.98,13.68 l -12.062,5.3867 c -1.3281,0.59375 -2.5117,0.89453 -3.5234,0.89453 -1.2305,0 -2.9258,-0.39844 -5.1094,-3.5078 l -4.543,-6.4727 c -1.3711,-1.9492 -3.2461,-3.4844 -5.4258,-4.4414 l -11.711,-5.1562 c -2.9453,-1.3008 -6.3008,-1.4648 -9.3555,-0.45312 l -11.332,3.7344 c -3.0859,1.0117 -5.3164,3.5234 -5.9648,6.707 -0.64453,3.1562 0.46094,6.4375 2.8867,8.5586 6.7812,5.9414 14.008,10.777 20.996,15.449 7.7812,5.207 15.141,10.129 20.238,15.633 1,1.7539 5.6484,10.676 4.7266,22.781 -0.14453,1.8984 -0.90234,3.7695 -2.1289,5.2656 -3.4062,4.1602 -9.9336,11.777 -15.34,16.066 -1.0156,0.80859 -2.1797,1.3789 -3.4609,1.7031 -2.7227,0.68359 -8.3008,1.832 -15.094,1.832 -3.0938,0 -6.1406,-0.23437 -9.0664,-0.70312 -0.99219,-0.16016 -2.0195,-0.55469 -3.0547,-1.1719 l -47.176,-28.219 c -5.5938,-3.3438 -13.297,-2.2422 -17.727,2.5195 l -48.008,51.578 c -2.5391,2.7266 -3.4609,6.4961 -2.4609,10.086 0.99609,3.5898 3.7305,6.3438 7.3125,7.3711 l 20.879,5.9727 -2.793,9.2852 40.09,12.055 2.457,4.2031 15.5,-4.0039 -10.926,-3.2852 -40.918,-12.305 1.3789,-4.582 184.91,52.887 c 0.79688,0.22656 1.6172,0.34375 2.4297,0.34375 h 0.004 c 3.1875,0 6.1211,-1.7656 7.6484,-4.6094 1.5312,-2.8438 1.375,-6.1602 -0.41797,-8.8711 -4.8398,-7.3203 -12.867,-18.434 -23.621,-29.824 -15.621,-16.547 -17.617,-29.258 -6.8828,-43.875 8.6406,-11.766 21.18,-28.102 27.887,-36.793 2.4922,-3.2266 3.875,-7.0898 4,-11.176 l 0.46484,-15 c 0.16406,-5.3125 2.5469,-10.375 6.5352,-13.887 l 0.71094,-0.625 c 7.3398,-6.4648 10.461,-16.387 8.1445,-25.891 l -3.3555,-13.773 c -0.47266,-1.9336 -0.17188,-3.9688 0.83984,-5.7344 2.6094,-4.5352 8.0195,-12.973 14.957,-18.523 1.5664,-1.25 3.6758,-1.9414 5.9453,-1.9414 l 26.691,1.2812 0.95312,0.0234 c 8.2461,0 15.66,-5.2148 18.453,-12.969 l 8.3086,-23.078 c 1.5781,-4.3867 5.7734,-7.3281 10.438,-7.3281 1.9336,0 3.7734,0.49219 5.4766,1.4688 l 7.6328,4.3633 c 3.168,1.8086 7.2773,1.625 10.262,-0.46094 l 40.012,-27.898 c 2.5664,-1.793 4.4688,-4.4336 5.3594,-7.4414 l 30.699,-104.14 c 0.82422,-2.8281 0.30469,-5.7852 -1.4336,-8.1094 z m -38.824,109.43 c -0.25,0.84766 -0.78906,1.5938 -1.5078,2.0938 l -39.633,27.879 -7.6289,-4.3633 c -3.1836,-1.8164 -6.7852,-2.7812 -10.422,-2.7812 -8.8516,0 -16.812,5.5898 -19.805,13.91 l -8.3086,23.078 c -1.3711,3.8125 -5.0117,6.375 -9.5234,6.375 h -0.0312 l -26.148,-1.2695 -1.0273,-0.0234 c -4.5195,0 -8.8398,1.4648 -12.164,4.1211 -7.8047,6.2461 -13.754,15.047 -17.367,21.336 -2.293,3.9922 -2.9609,8.625 -1.8828,13.055 l 3.3555,13.773 c 1.4375,5.8945 -0.5,12.051 -5.0508,16.059 l -0.71094,0.625 c -6.0469,5.3242 -9.6602,12.996 -9.9062,21.051 l -0.46484,15 c -0.0625,1.9766 -0.72656,3.8438 -1.9258,5.4023 -6.7344,8.7266 -19.332,25.133 -28.031,36.984 -13.66,18.602 -11.219,36.586 7.6719,56.602 8.9414,9.4688 15.91,18.746 20.617,25.602 l -207.26,-59.27 c -0.0859,-0.0234 -0.35938,-0.10156 -0.46094,-0.46484 -0.10156,-0.35938 0.0937,-0.5625 0.15625,-0.63281 l 48.012,-51.574 c 0.80859,-0.86719 1.9531,-1.3633 3.1367,-1.3633 0.76953,0 1.5273,0.21094 2.1914,0.60938 l 47.172,28.215 c 2.125,1.2695 4.3438,2.0977 6.5938,2.457 3.4414,0.55078 7.0195,0.82812 10.633,0.82812 7.4688,0 13.648,-1.1602 17.52,-2.1328 2.6641,-0.67188 5.0938,-1.8672 7.2266,-3.5625 5.8203,-4.625 12.375,-12.098 16.848,-17.555 2.5469,-3.1055 4.0508,-6.8477 4.3555,-10.816 1.293,-16.938 -6.1289,-28.723 -6.4453,-29.215 l -0.5,-0.65234 c -5.9336,-6.5586 -13.938,-11.914 -22.41,-17.582 -6.2617,-4.1875 -12.723,-8.5117 -18.664,-13.539 l 9.6562,-3.1836 c 0.73047,-0.23438 1.5156,-0.19922 2.2266,0.10938 l 11.719,5.1602 c 0.51953,0.22656 0.96094,0.59375 1.2891,1.0547 l 4.5391,6.4688 c 5.293,7.5352 12.621,9.6562 20.84,5.9805 l 13.195,-5.8906 c 2.668,-1.1953 4.5664,-3.3906 5.2148,-6.0312 0.65625,-2.6797 -0.0352,-5.5625 -1.8984,-7.9062 -4.5898,-5.7891 -11.227,-9.9219 -22.223,-16.773 -6.0156,-3.75 -13.418,-8.3633 -22.508,-14.52 80.934,-45.875 164.62,-93.348 269.73,-184.5 z"
       sodipodi:nodetypes="cccccccccsccccccccccscccsccccccccccccccccsscccsccccccccccccccsccccccccccccsccscccccccccccccccccccscccsccccccccccccccccccccc"
       style="fill:#b3b3b3"
       inkscape:label="track" />
    <path
       d="m 328.09774,378.80316 1.4258,-0.80859 m 0,0 c 81.06,-45.94 164.88,-93.455 270.21,-185.1 l 4.65118,9.13425 -269.73,184.5 m 0,0 c 80.934,-45.875 164.62,-93.348 269.73,-184.5"
       style="fill:#ff0000"
       id="path1075"
       sodipodi:nodetypes="cccccccc"
       inkscape:label="driver-path" />
    <!-- 
            Tweet Path: This is the new inner lane for tweet pins.
            - It uses the same path data as the driver path.
            - A transform is applied to scale it down and re-center it, creating a visually distinct inner track.
            - The stroke is transparent as it's only used for positioning, not for display.
        -->
    <!--    <path 
            id="tweet-path"
            fill="none"
            stroke="#fff" 
            stroke-width="1"
            transform="translate(25.6, 25.6) scale(0.9)" 
            d="m612.3 194.41c-3.082-4.1289-9.5469-4.9141-13.484-1.4766-105.33 91.645-189.15 139.16-270.21 185.1l-1.4258 0.80859c-2.6445 1.4961-4.3008 4.207-4.4297 7.25-0.125 3.0664 1.3086 5.9258 3.8438 7.6562 9.9609 6.7969 17.961 11.781 24.387 15.789 9.3984 5.8594 15.324 9.5508 18.98 13.68l-12.062 5.3867c-1.3281 0.59375-2.5117 0.89453-3.5234 0.89453-1.2305 0-2.9258-0.39844-5.1094-3.5078l-4.543-6.4727c-1.3711-1.9492-3.2461-3.4844-5.4258-4.4414l-11.711-5.1562c-2.9453-1.3008-6.3008-1.4648-9.3555-0.45312l-11.332 3.7344c-3.0859 1.0117-5.3164 3.5234-5.9648 6.707-0.64453 3.1562 0.46094 6.4375 2.8867 8.5586 6.7812 5.9414 14.008 10.777 20.996 15.449 7.7812 5.207 15.141 10.129 20.238 15.633 1 1.7539 5.6484 10.676 4.7266 22.781-0.14453 1.8984-0.90234 3.7695-2.1289 5.2656-3.4062 4.1602-9.9336 11.777-15.34 16.066-1.0156 0.80859-2.1797 1.3789-3.4609 1.7031-2.7227 0.68359-8.3008 1.832-15.094 1.832-3.0938 0-6.1406-0.23437-9.0664-0.70312-0.99219-0.16016-2.0195-0.55469-3.0547-1.1719l-47.176-28.219c-5.5938-3.3438-13.297-2.2422-17.727 2.5195l-48.008 51.578c-2.5391 2.7266-3.4609 6.4961-2.4609 10.086 0.99609 3.5898 3.7305 6.3438 7.3125 7.3711l20.879 5.9727-2.793 9.2852 40.09 12.055 2.457 4.2031 15.5-4.0039-10.926-3.2852-40.918-12.305 1.3789-4.582 184.91 52.887c0.79688 0.22656 1.6172 0.34375 2.4297 0.34375h0.003906c3.1875 0 6.1211-1.7656 7.6484-4.6094 1.5312-2.8438 1.375-6.1602-0.41797-8.8711-4.8398-7.3203-12.867-18.434-23.621-29.824-15.621-16.547-17.617-29.258-6.8828-43.875 8.6406-11.766 21.18-28.102 27.887-36.793 2.4922-3.2266 3.875-7.0898 4-11.176l0.46484-15c0.16406-5.3125 2.5469-10.375 6.5352-13.887l0.71094-0.625c7.3398-6.4648 10.461-16.387 8.1445-25.891l-3.3555-13.773c-0.47266-1.9336-0.17188-3.9688 0.83984-5.7344 2.6094-4.5352 8.0195-12.973 14.957-18.523 1.5664-1.25 3.6758-1.9414 5.9453-1.9414l26.691 1.2812 0.95312 0.023437c8.2461 0 15.66-5.2148 18.453-12.969l8.3086-23.078c1.5781-4.3867 5.7734-7.3281 10.438-7.3281 1.9336 0 3.7734 0.49219 5.4766 1.4688l7.6328 4.3633c3.168 1.8086 7.2773 1.625 10.262-0.46094l40.012-27.898c2.5664-1.793 4.4688-4.4336 5.3594-7.4414l30.699-104.14c0.82422-2.8281 0.30469-5.7852-1.4336-8.1094zm-38.824 109.43c-0.25 0.84766-0.78906 1.5938-1.5078 2.0938l-39.633 27.879-7.6289-4.3633c-3.1836-1.8164-6.7852-2.7812-10.422-2.7812-8.8516 0-16.812 5.5898-19.805 13.91l-8.3086 23.078c-1.3711 3.8125-5.0117 6.375-9.5234 6.375h-0.03125l-26.148-1.2695-1.0273-0.023437c-4.5195 0-8.8398 1.4648-12.164 4.1211-7.8047 6.2461-13.754 15.047-17.367 21.336-2.293 3.9922-2.9609 8.625-1.8828 13.055l3.3555 13.773c1.4375 5.8945-0.5 12.051-5.0508 16.059l-0.71094 0.625c-6.0469 5.3242-9.6602 12.996-9.9062 21.051l-0.46484 15c-0.0625 1.9766-0.72656 3.8438-1.9258 5.4023-6.7344 8.7266-19.332 25.133-28.031 36.984-13.66 18.602-11.219 36.586 7.6719 56.602 8.9414 9.4688 15.91 18.746 20.617 25.602l-207.26-59.27c-0.085938-0.023437-0.35938-0.10156-0.46094-0.46484-0.10156-0.35938 0.09375-0.5625 0.15625-0.63281l48.012-51.574c0.80859-0.86719 1.9531-1.3633 3.1367-1.3633 0.76953 0 1.5273 0.21094 2.1914 0.60938l47.172 28.215c2.125 1.2695 4.3438 2.0977 6.5938 2.457 3.4414 0.55078 7.0195 0.82812 10.633 0.82812 7.4688 0 13.648-1.1602 17.52-2.1328 2.6641-0.67188 5.0938-1.8672 7.2266-3.5625 5.8203-4.625 12.375-12.098 16.848-17.555 2.5469-3.1055 4.0508-6.8477 4.3555-10.816 1.293-16.938-6.1289-28.723-6.4453-29.215l-0.5-0.65234c-5.9336-6.5586-13.938-11.914-22.41-17.582-6.2617-4.1875-12.723-8.5117-18.664-13.539l9.6562-3.1836c0.73047-0.23438 1.5156-0.19922 2.2266 0.10938l11.719 5.1602c0.51953 0.22656 0.96094 0.59375 1.2891 1.0547l4.5391 6.4688c5.293 7.5352 12.621 9.6562 20.84 5.9805l13.195-5.8906c2.668-1.1953 4.5664-3.3906 5.2148-6.0312 0.65625-2.6797-0.035157-5.5625-1.8984-7.9062-4.5898-5.7891-11.227-9.9219-22.223-16.773-6.0156-3.75-13.418-8.3633-22.508-14.52 80.934-45.875 164.62-93.348 269.73-184.5z"
        />
       -->
  </g>
</svg>
