<!DOCTYPE svg PUBLIC "-//W3C//DTD SVG 1.1//EN" "http://www.w3.org/Graphics/SVG/1.1/DTD/svg11.dtd">
<!-- Uploaded to: SVG Find, www.svgrepo.com, Transformed by: SVG Find Mixer Tools -->
<svg fill="#ffffff" width="256px" height="256px" version="1.1" viewBox="144 144 512 512" xmlns="http://www.w3.org/2000/svg" stroke="#ffffff">
<g id="SVGRepo_bgCarrier" stroke-width="0"/>
<g id="SVGRepo_tracerCarrier" stroke-linecap="round" stroke-linejoin="round"/>
<g id="SVGRepo_iconCarrier"> <path d="m606.52 199.07c-12.082-10.898-22.465-13.188-29.047-13.188-3.3672 0-6.5938 0.56641-9.5938 1.6875l-96.035 35.84-2.0625-5.6367 39.719-14.516 10.605-3.875-15.543-3.0625-2.1836 4.2969-38.914 14.223 3.7617 10.293-54.742 20.43c-2.1016 0.78125-4.1797 1.6328-6.2305 2.5469l-20.781 9.2812c-5.7344 2.5586-10.867 5.8359-15.254 9.7422-18.238 16.219-14.211 32.875-8.0547 49.973l-4.8008 1.793c-4.793 1.7891-7.4219 7.0352-5.9844 11.941 2.9258 9.9727 8.7773 28.5 15.062 40.527 2.6289 5.0312 6.1094 13.332 10.344 24.656 5.2891 14.156 4.25 29.566-2.7812 42.758l-49.621-7.0234c-6.6094-0.9375-12.789-4.1133-17.398-8.9414l-9.7148-10.18c-3.9414-4.125-11.094-4.2383-15.172-0.25-3.8359 3.7617-4.2695 9.8125-1.0117 14.074 6.832 8.957 23.031 30.184 27.238 35.637 1.2812 2.1328 4.2891 14.578 2.875 22.695-0.23437 1.3594-6.1133 33.488-34.156 54.918-7.6523 5.8516-22.297 11.688-27.434 12.25l-40.688 4.4531c-9.8242 1.0781-17.707 8.3125-19.617 18.008l-2.4414 12.395c-1.332 6.7422 0.41016 13.648 4.7656 18.953 4.3672 5.3086 10.77 8.3555 17.562 8.3594 1.375 0 2.7695-0.12891 4.1445-0.37891 8.4219-1.5391 15.707-4.5469 21.652-8.9336 14.895-10.984 46.887-36.68 56.516-45.156 2.5508-2.2461 4.9453-4.7305 7.1602-7.457l77.371-98.746c1.0508-1.293 2.0586-2.6328 3.0039-4.0078l16.109 2.2812c5.1836 0.71875 9.9922-2.4102 11.496-7.3125l8.9453-29.266c1.7695-5.7852 0.92578-12.027-2.3203-17.129-2.9688-4.6641-8.8164-14.117-19.832-32.66-19.258-32.414 0.625-54.266 11.309-66.008l0.62109-0.68359c3.8242-4.2148 8.6016-5.0977 11.934-5.0977 6.1797 0 13.004 3.0273 16.996 7.5391 6.875 7.7695 13.656 11.234 21.988 11.234 2.9023 0 6.0352-0.42578 9.5781-1.3008 11.609-2.8672 14.672-10.059 19.305-20.941 0.94141-2.2148 1.9844-4.6523 3.207-7.3359 2.9062-6.3672 7.4961-8.8477 16.367-8.8477 3.5117 0 7.3008 0.375 11.309 0.77344 1.8203 0.17969 3.6523 0.35938 5.4883 0.51172 16.109 1.3555 21.57-12.23 25.219-21.02 0.85547-2.0703 1.668-4.043 2.5586-5.7109 2.3008-4.3047 17.473-7.3125 28.551-9.5117 5.5195-1.0938 11.227-2.2266 16.289-3.5742 10.082-2.6797 16.969-8.7891 18.891-16.75 1.6992-7.0391-0.74219-14.348-6.5273-19.57zm-315.55 346.98c-1.8164 2.2305-3.8242 4.3203-5.9727 6.2109-9.5039 8.3633-41.117 33.754-55.855 44.621-4.7305 3.4883-10.645 5.8984-17.57 7.168-4.75 0.875-9.3359-0.90625-12.328-4.543-2.4766-3.0156-3.4648-6.9492-2.7109-10.789l2.4414-12.395c1.0742-5.4453 5.5039-9.5156 11.023-10.117l40.688-4.4531c7.2734-0.79688 23.32-7.3164 32.344-14.219 31.07-23.738 37.617-59.539 37.883-61.055 1.7695-10.16-1.625-26.285-4.6797-30.258-4.2969-5.5859-20.484-26.793-27.312-35.746-0.24219-0.31641-0.21094-0.77344 0.078126-1.0547 0.19531-0.19141 0.41406-0.23047 0.56641-0.23047 0.15625 0 0.38672 0.042969 0.57812 0.24609l9.7109 10.176c6.1328 6.4258 14.352 10.652 23.148 11.895l44.891 6.3555zm312.5-329.74c-1.0508 4.3438-5.3672 7.8203-11.848 9.5469-4.7578 1.2617-10.309 2.3633-15.676 3.4297-16.543 3.2812-30.828 6.1172-35.328 14.535-1.0742 2.0117-1.9922 4.2305-2.9648 6.5781-3.9766 9.582-7.207 15.602-15.316 14.977-1.7773-0.14453-3.5547-0.32422-5.3125-0.49609-4.0703-0.40234-8.2812-0.82422-12.281-0.82422-8.0117 0-19.352 1.5156-25.332 14.609-1.2656 2.7695-2.3359 5.2891-3.3086 7.5703-4.5742 10.738-6.0391 13.617-12.602 15.238-9.8828 2.4375-14.93 0.90234-21.824-6.8945-5.8359-6.5977-15.402-10.863-24.375-10.863-7.6328 0-14.281 2.8789-19.23 8.3281l-0.61328 0.67578c-10.617 11.668-35.477 38.988-12.492 77.672 8.8945 14.973 15.621 26.047 19.988 32.914 1.6953 2.668 2.1367 5.9336 1.2109 8.9609l-8.9453 29.27c-0.089844 0.30469-0.37109 0.44141-0.59375 0.44141l-11.883-1.6758-0.46094-0.066406c6.918-14.953 7.6016-31.957 1.7305-47.664-4.375-11.707-8.0234-20.375-10.84-25.77-6.1172-11.703-12.066-30.988-14.367-38.672l4.8008-1.793c5.0547-1.8867 7.6719-7.5508 5.8359-12.621-5.6992-15.762-8.4062-27.008 5.3281-39.223 3.6328-3.2344 7.9141-5.9609 12.723-8.1055l20.785-9.2812c1.8555-0.82812 3.7383-1.6016 5.6484-2.3125l155.4-57.988c7.9414-2.9609 18.449 0.42969 28.594 9.582 3.0586 2.7617 4.3867 6.4688 3.5508 9.9219z"/> </g>
</svg>